<?xml version="1.0" encoding="UTF-8" standalone="no"?>
<!DOCTYPE svg PUBLIC "-//W3C//DTD SVG 1.1//EN" "http://www.w3.org/Graphics/SVG/1.1/DTD/svg11.dtd">
<svg width="100%" height="100%" viewBox="0 0 2608 456" version="1.1" xmlns="http://www.w3.org/2000/svg" xmlns:xlink="http://www.w3.org/1999/xlink" xml:space="preserve" xmlns:serif="http://www.serif.com/" style="fill-rule:evenodd;clip-rule:evenodd;stroke-linejoin:round;stroke-miterlimit:1.41421;">
    <g transform="matrix(1,0,0,1,-0.000499958,-2.9021)">
        <g transform="matrix(4.16667,0,0,4.16667,0,0)">
            <path d="M451.164,98.463C448.806,98.463 447.336,97.866 447.103,97.276C446.535,95.843 447.571,89.766 459.033,78.998C467.389,71.15 480.013,61.113 493.863,51.238C494.005,52.655 494.078,54.094 494.078,55.548C494.078,80.11 471.422,98.463 451.164,98.463ZM24.291,93.975C18.23,97.466 13.595,97.696 12.373,96.752C11.657,96.2 10.775,93.423 12.562,86.865C16.152,73.688 23.739,55.191 31.892,39.741C40.225,23.949 46.168,16.819 49.354,14.071C50.511,13.074 52.633,12.917 54.061,14.074C57.21,16.627 63.185,23.688 71.959,43.218C73.961,47.674 75.894,52.297 77.733,56.929C57.822,71.824 37.367,86.445 24.291,93.975ZM624.263,42.027C616.972,12.9 587.345,-4.858 558.219,2.422C541.478,6.612 516.477,22.06 503.066,30.895C502.22,31.451 501.375,32.012 500.53,32.576C491.851,13.997 472.986,1.094 451.164,1.094L412.17,1.094C408.984,1.094 406.401,3.676 406.401,6.862L406.401,94.725C406.401,96.486 405.757,97.814 404.76,98.111C403.677,98.425 402.24,97.509 401.101,95.757C395.34,86.892 380.336,62.548 367.1,41.07C358.485,27.09 350.347,13.886 346.303,7.463C342.849,1.979 336.823,-0.469 330.943,1.227C325.116,2.908 321.202,8.32 321.202,14.694L321.202,89.598C321.202,93.777 319.832,97.02 317.712,97.862C315.703,98.656 312.776,97.38 310.081,94.519C301.205,85.1 293.927,66.461 286.888,48.436C276.969,23.033 268.402,1.095 253.772,1.095C240.751,1.095 233.125,18.484 223.472,40.498C214.763,60.357 204.893,82.864 190.995,91.853C171.256,104.618 148.092,96.076 137.95,85.935C121.219,69.201 121.218,41.974 137.95,25.241C139.771,23.421 141.757,21.759 143.852,20.304C157.404,10.888 175.405,10.133 189.711,18.382C192.47,19.972 195.998,19.026 197.589,16.265C199.18,13.505 198.233,9.977 195.472,8.387C177.317,-2.079 154.47,-1.121 137.271,10.829C135.358,12.157 133.521,13.624 131.78,15.2C123.307,21.921 106.054,35.508 87.278,49.74C85.736,45.939 84.132,42.161 82.483,38.491C70.864,12.628 61.288,1.095 51.433,1.095C46.319,1.095 37.752,4.393 22.462,32.904C13.627,49.379 5.372,69.369 1.431,83.832C-2.113,96.841 1.592,103.006 5.325,105.885C7.814,107.806 10.967,108.757 14.537,108.757C19.182,108.756 24.534,107.148 30.049,103.972C43.069,96.475 62.689,82.546 82.012,68.159C87.571,83.319 91.85,97.215 93.902,104.132C94.806,107.187 98.019,108.926 101.072,108.023C104.126,107.117 105.868,103.906 104.962,100.851C102.728,93.317 97.901,77.665 91.638,60.937C100.041,54.591 108.156,48.352 115.4,42.728C111.094,60.573 115.889,80.188 129.792,94.092C144.83,109.129 173.585,116.851 197.26,101.54C214.068,90.67 224.677,66.477 234.037,45.132C240.052,31.416 248.289,12.632 253.772,12.632C260.522,12.632 269.921,36.704 276.142,52.632C283.581,71.683 291.273,91.382 301.684,102.43C307.784,108.902 315.364,111.204 321.968,108.585C328.712,105.908 332.739,98.81 332.739,89.598L332.739,14.694C332.739,12.909 333.72,12.432 334.141,12.311C335.009,12.062 335.856,12.525 336.54,13.61C340.554,19.987 348.679,33.167 357.278,47.122C370.549,68.656 385.591,93.062 391.427,102.043C395.417,108.181 401.932,110.979 408.038,109.171C414.052,107.388 417.938,101.718 417.938,94.725L417.938,12.631L451.164,12.631C469.043,12.631 484.404,23.623 490.845,39.203C475.257,50.13 460.721,61.585 451.134,70.589C434.864,85.874 434.128,95.848 436.376,101.523C438.51,106.911 443.9,110 451.164,110C464.433,110 478.055,104.216 488.541,94.13C499.552,83.539 505.615,69.836 505.615,55.548C505.615,51.565 505.186,47.682 504.37,43.94C525.565,29.608 547.78,16.928 561.019,13.614C583.977,7.871 607.325,21.873 613.071,44.828C618.815,67.784 604.815,91.133 581.859,96.878C558.904,102.623 535.552,88.623 529.807,65.668C529.034,62.576 525.897,60.704 522.81,61.472C519.719,62.246 517.841,65.378 518.615,68.469C525.903,97.594 555.529,115.362 584.66,108.07C613.786,100.78 631.552,71.153 624.263,42.027Z" style="fill:white;fill-rule:nonzero;"/>
        </g>
    </g>
</svg>
