<?xml version="1.0" encoding="UTF-8" standalone="no"?>
<svg
   xmlns:dc="http://purl.org/dc/elements/1.1/"
   xmlns:cc="http://creativecommons.org/ns#"
   xmlns:rdf="http://www.w3.org/1999/02/22-rdf-syntax-ns#"
   xmlns:svg="http://www.w3.org/2000/svg"
   xmlns="http://www.w3.org/2000/svg"
   xmlns:sodipodi="http://sodipodi.sourceforge.net/DTD/sodipodi-0.dtd"
   xmlns:inkscape="http://www.inkscape.org/namespaces/inkscape"
   width="520"
   height="435.78333"
   viewBox="0 0 520 435.78333"
   version="1.1"
   xml:space="preserve"
   style="clip-rule:evenodd;fill-rule:evenodd;stroke-linejoin:round;stroke-miterlimit:1.41420996"
   id="svg3847"
   sodipodi:docname="logo_404.svg"
   inkscape:version="0.92.4 5da689c313, 2019-01-14"><metadata
   id="metadata3851"><rdf:RDF><cc:Work
       rdf:about=""><dc:format>image/svg+xml</dc:format><dc:type
         rdf:resource="http://purl.org/dc/dcmitype/StillImage" /><dc:title></dc:title></cc:Work></rdf:RDF></metadata><sodipodi:namedview
   pagecolor="#ffffff"
   bordercolor="#666666"
   borderopacity="1"
   objecttolerance="10"
   gridtolerance="10"
   guidetolerance="10"
   inkscape:pageopacity="0"
   inkscape:pageshadow="2"
   inkscape:window-width="2560"
   inkscape:window-height="1373"
   id="namedview3849"
   showgrid="true"
   inkscape:zoom="1.2735426"
   inkscape:cx="421.27502"
   inkscape:cy="161.09371"
   inkscape:window-x="0"
   inkscape:window-y="38"
   inkscape:window-maximized="1"
   inkscape:current-layer="svg3847"
   showguides="true"
   inkscape:guide-bbox="true"><inkscape:grid
     type="xygrid"
     id="grid3876" /><sodipodi:guide
     position="270,420"
     orientation="1,0"
     id="guide3880"
     inkscape:locked="false" /></sodipodi:namedview>
    <g
   transform="rotate(-20.9,250.51601,1479.7153)"
   id="g3838">
        <g
   transform="matrix(220.943,-367.711,-367.711,-220.943,574.496,468.516)"
   id="g3804">
            <path
   d="M 0.765,0.527 C 0.754,0.53 0.742,0.523 0.739,0.512 0.738,0.507 0.739,0.501 0.742,0.496 0.744,0.492 0.747,0.489 0.751,0.488 L 0.709,0.317 0.675,0.373 0.688,0.425 c 0.003,0 0.006,0.001 0.009,0.003 C 0.7,0.43 0.703,0.433 0.704,0.437 0.706,0.446 0.701,0.455 0.692,0.457 0.688,0.458 0.684,0.457 0.68,0.455 0.676,0.453 0.674,0.449 0.673,0.445 0.672,0.441 0.672,0.437 0.675,0.433 0.676,0.431 0.678,0.429 0.681,0.427 L 0.667,0.372 0.706,0.307 0.69,0.244 0.683,0.239 0.662,0.274 C 0.667,0.279 0.668,0.287 0.664,0.293 0.66,0.301 0.65,0.303 0.642,0.299 0.635,0.294 0.632,0.284 0.637,0.277 0.641,0.27 0.648,0.267 0.655,0.269 L 0.676,0.235 0.595,0.187 0.615,0.265 0.605,0.281 0.633,0.394 0.616,0.423 0.63,0.479 C 0.641,0.478 0.65,0.485 0.652,0.495 0.654,0.5 0.653,0.506 0.65,0.511 0.647,0.515 0.643,0.519 0.637,0.52 0.626,0.523 0.614,0.516 0.612,0.505 0.61,0.499 0.611,0.494 0.614,0.489 0.616,0.486 0.619,0.483 0.623,0.481 L 0.608,0.421 0.625,0.393 0.597,0.28 0.606,0.264 0.566,0.1 0.487,0.23 0.536,0.26 0.541,0.289 0.572,0.308 0.59,0.378 0.529,0.478 C 0.533,0.481 0.535,0.485 0.536,0.489 0.539,0.5 0.532,0.512 0.521,0.515 0.515,0.516 0.509,0.515 0.505,0.512 0.5,0.509 0.496,0.505 0.495,0.499 0.494,0.494 0.495,0.488 0.497,0.483 0.5,0.479 0.505,0.475 0.51,0.474 0.515,0.473 0.519,0.473 0.523,0.474 L 0.581,0.377 0.565,0.313 0.543,0.299 0.549,0.343 0.456,0.498 C 0.463,0.504 0.465,0.515 0.46,0.524 0.454,0.534 0.441,0.537 0.431,0.531 0.421,0.525 0.417,0.512 0.423,0.502 0.429,0.493 0.44,0.49 0.449,0.493 L 0.541,0.341 0.529,0.265 0.483,0.237 0.456,0.283 0.483,0.299 0.487,0.339 0.445,0.41 C 0.451,0.416 0.452,0.426 0.448,0.433 0.442,0.442 0.431,0.445 0.422,0.44 0.413,0.434 0.41,0.423 0.415,0.414 0.42,0.406 0.43,0.403 0.438,0.406 L 0.479,0.337 0.476,0.304 0.452,0.29 0.411,0.358 0.374,0.363 0.286,0.27 0.165,0.214 0.106,0.05 0.03,0.031 0,-0.195 0.101,-0.315 v 0 l 0.058,-0.145 0.214,-0.08 0.053,0.058 0.172,-0.024 0.107,0.08 0.123,0.034 0.035,0.098 0.1,0.069 L 1,-0.107 0.974,0.08 0.876,0.151 v 0 L 0.86,0.27 0.758,0.209 0.769,0.252 0.856,0.304 C 0.862,0.297 0.873,0.295 0.882,0.3 0.892,0.306 0.896,0.319 0.89,0.329 0.884,0.339 0.871,0.343 0.861,0.337 0.852,0.331 0.848,0.321 0.852,0.311 L 0.762,0.257 0.748,0.203 0.573,0.097 0.593,0.176 0.697,0.239 0.703,0.26 0.765,0.297 0.788,0.39 c 0.004,0 0.008,0.001 0.011,0.003 0.005,0.003 0.009,0.008 0.01,0.013 C 0.812,0.418 0.805,0.429 0.794,0.432 0.788,0.433 0.783,0.432 0.778,0.43 0.773,0.427 0.77,0.422 0.768,0.417 0.767,0.411 0.768,0.405 0.771,0.401 0.773,0.397 0.776,0.394 0.78,0.392 L 0.758,0.303 0.705,0.271 0.759,0.486 c 0.004,0 0.008,0.001 0.012,0.003 0.004,0.003 0.008,0.007 0.009,0.013 0.002,0.005 0,0.011 -0.002,0.016 C 0.775,0.522 0.77,0.526 0.765,0.527 Z M 0.747,0.51 C 0.749,0.517 0.756,0.521 0.763,0.52 0.766,0.519 0.769,0.517 0.771,0.514 0.773,0.511 0.773,0.507 0.772,0.504 0.771,0.497 0.764,0.492 0.757,0.494 0.753,0.495 0.75,0.497 0.749,0.5 0.747,0.503 0.746,0.507 0.747,0.51 Z M 0.865,0.33 C 0.871,0.333 0.879,0.331 0.883,0.325 0.886,0.319 0.884,0.311 0.878,0.307 0.872,0.303 0.864,0.305 0.86,0.312 0.856,0.318 0.858,0.326 0.865,0.33 Z M 0.776,0.415 C 0.777,0.418 0.779,0.421 0.782,0.423 0.785,0.424 0.788,0.425 0.792,0.424 0.795,0.423 0.798,0.421 0.8,0.418 0.802,0.415 0.802,0.412 0.801,0.408 0.801,0.405 0.798,0.402 0.795,0.4 0.792,0.398 0.789,0.398 0.785,0.399 0.782,0.4 0.779,0.402 0.777,0.405 0.776,0.408 0.775,0.411 0.776,0.415 Z M 0.681,0.443 c 0,0.002 0.001,0.004 0.003,0.005 C 0.686,0.449 0.688,0.45 0.69,0.449 0.692,0.449 0.694,0.447 0.695,0.445 0.696,0.444 0.697,0.441 0.696,0.439 0.696,0.437 0.694,0.435 0.692,0.434 0.691,0.433 0.688,0.433 0.686,0.433 0.684,0.434 0.682,0.435 0.681,0.437 0.68,0.439 0.68,0.441 0.681,0.443 Z M 0.619,0.503 C 0.621,0.51 0.628,0.514 0.635,0.513 0.642,0.511 0.646,0.504 0.645,0.497 0.643,0.49 0.636,0.485 0.629,0.487 0.625,0.488 0.622,0.49 0.621,0.493 0.619,0.496 0.618,0.5 0.619,0.503 Z M 0.646,0.292 C 0.65,0.294 0.655,0.293 0.658,0.289 0.66,0.285 0.659,0.28 0.655,0.278 0.651,0.276 0.646,0.277 0.644,0.281 0.641,0.285 0.643,0.289 0.646,0.292 Z M 0.503,0.497 C 0.504,0.501 0.506,0.504 0.509,0.505 0.512,0.507 0.515,0.508 0.519,0.507 0.522,0.506 0.525,0.504 0.527,0.501 0.529,0.498 0.529,0.494 0.528,0.491 0.527,0.488 0.525,0.485 0.522,0.483 0.519,0.481 0.516,0.481 0.512,0.481 0.509,0.482 0.506,0.485 0.504,0.488 0.503,0.49 0.502,0.494 0.503,0.497 Z M 0.435,0.524 C 0.441,0.528 0.449,0.526 0.453,0.52 0.456,0.514 0.454,0.506 0.448,0.502 0.442,0.498 0.434,0.5 0.43,0.506 0.427,0.513 0.429,0.521 0.435,0.524 Z M 0.426,0.433 C 0.431,0.436 0.438,0.434 0.441,0.429 0.444,0.424 0.442,0.417 0.437,0.414 0.432,0.411 0.425,0.413 0.422,0.418 0.419,0.423 0.421,0.43 0.426,0.433 Z"
   style="fill:url(#_Linear1);fill-rule:nonzero"
   id="path3802"
   inkscape:connector-curvature="0" />
        </g>
        <g
   transform="translate(714.502,497.247)"
   id="g3808">
            <path
   d="m 0,-381.01 -0.055,-0.041 v 184.842 L 0,-196.291 Z m -0.055,190.8 v 63.554 l -1.688,0.878 -1.661,-0.864 v 5.985 l 1.675,-1.236 1.674,1.222 V 0.041 L 0.014,0 v -190.32 z"
   style="fill:#ffffff;fill-rule:nonzero"
   id="path3806"
   inkscape:connector-curvature="0" />
        </g>
        <g
   transform="translate(716.122,371.827)"
   id="g3812">
            <path
   d="M 0,1.743 -1.606,2.58 -1.675,2.607 -2.443,3.006 -3.157,1.605 -3.35,1.263 l -0.659,-1.291 0.646,-0.33 1.688,-0.878 0.069,-0.027 v 1.825 z"
   style="fill:#ffffff;fill-rule:nonzero"
   id="path3810"
   inkscape:connector-curvature="0" />
        </g>
        <g
   transform="translate(716.122,375.079)"
   id="g3816">
            <path
   d="m 0,-1.509 -1.606,0.837 V 1.552 L -1.675,1.497 -3.35,0.275 -4.146,-0.315 -3.35,-1.4 l 0.193,-0.247 1.043,-1.414 0.439,0.33 0.069,0.041 z"
   style="fill:#ffffff;fill-rule:nonzero"
   id="path3814"
   inkscape:connector-curvature="0" />
        </g>
        <g
   transform="matrix(-0.55238,-0.833592,-0.833592,0.55238,788.071,157.537)"
   id="g3820">
            <path
   d="m -77.073,143.429 h 0.1 L 76.984,41.409 76.987,41.34 Z"
   style="fill:#ffffff;fill-rule:nonzero"
   id="path3818"
   inkscape:connector-curvature="0" />
        </g>
        <g
   transform="translate(714.447,433.61)"
   id="g3824">
            <path
   d="m 0,-63.018 v 5.984 l -1.675,-1.221 -1.675,1.235 V 63.678 l -0.068,-0.054 v -190.32 l 0.068,0.082 v 63.61 l 1.662,0.864 z"
   style="fill:#ffffff;fill-rule:nonzero"
   id="path3822"
   inkscape:connector-curvature="0" />
        </g>
        <g
   transform="translate(713.432,373.612)"
   id="g3828">
            <path
   d="m 0,-1.798 -0.659,1.276 -0.179,0.343 -0.727,1.414 -0.769,-0.398 -0.068,-0.028 -1.607,-0.836 1.607,-1.181 v -1.825 l 0.068,0.027 1.661,0.864 z"
   style="fill:#ffffff;fill-rule:nonzero"
   id="path3826"
   inkscape:connector-curvature="0" />
        </g>
        <g
   transform="translate(844.781,186.38)"
   id="g3832">
            <path
   d="m 0,230.401 -0.014,0.014 -38.668,14.399 c -0.383,-0.659 -0.85,-1.249 -1.386,-1.784 -1.496,-1.496 -3.5,-2.498 -5.738,-2.704 l -7.289,-83.609 c 1.593,-0.426 3.021,-1.277 4.159,-2.416 0.797,-0.796 1.442,-1.716 1.895,-2.745 l 92.146,23.39 z m 8.318,31.448 -45.654,-11.613 c 0.027,-0.191 0.027,-0.37 0.027,-0.563 0,-0.576 -0.054,-1.139 -0.165,-1.674 l 37.378,-13.906 z m -71.172,58.778 15.539,-61.592 c 0.206,0.041 0.397,0.041 0.603,0.041 2.595,0 4.941,-1.057 6.644,-2.773 0.797,-0.796 1.441,-1.715 1.894,-2.745 l 45.23,11.503 z m -4.16,2.552 -60.767,-9.91 74.742,-56.691 c 0.713,0.673 1.523,1.221 2.415,1.62 z m -63.32,-12.271 V 190.196 l -1.675,-1.222 -1.675,1.236 v 120.698 l -0.068,-0.055 -75.153,-57.007 c 0.645,-1.262 1.002,-2.69 1.002,-4.186 0,-1.469 -0.344,-2.869 -0.975,-4.118 l 75.126,-55.291 v -2.21 l -1.606,-0.837 -75.551,55.579 c -1.085,-1.016 -2.416,-1.771 -3.885,-2.169 l 7.289,-83.609 c 2.649,-0.261 4.983,-1.633 6.52,-3.638 l 65.627,33.837 1.606,-1.181 v -1.825 l -65.682,-33.864 c 0.261,-0.851 0.398,-1.744 0.398,-2.677 0,-2.594 -1.057,-4.941 -2.759,-6.644 -0.672,-0.672 -1.455,-1.249 -2.306,-1.688 l 23.679,-78.132 c 0.342,0.041 0.686,0.055 1.029,0.055 1.372,0 2.677,-0.302 3.857,-0.851 l 41.784,60.136 0.068,0.083 v 63.609 l 1.662,0.864 1.688,-0.877 v -63.555 l 0.068,-0.11 41.771,-60.15 c 1.181,0.549 2.484,0.851 3.871,0.851 0.356,0 0.699,-0.014 1.043,-0.068 l 23.678,78.145 c -0.851,0.439 -1.633,1.016 -2.306,1.688 -1.702,1.703 -2.759,4.05 -2.759,6.644 0,0.92 0.137,1.812 0.384,2.663 l -65.682,33.864 v 1.825 l 1.607,1.181 65.64,-33.823 c 1.538,2.005 3.872,3.377 6.52,3.638 l 7.289,83.623 c -1.469,0.384 -2.786,1.139 -3.871,2.169 h -0.014 l -75.564,-55.607 -1.607,0.837 v 2.224 l 75.126,55.291 c -0.631,1.249 -0.974,2.649 -0.974,4.131 0,1.497 0.356,2.911 1.002,4.173 l -75.154,57.021 z m -66.657,12.244 -16.389,-64.968 c 0.892,-0.398 1.716,-0.947 2.429,-1.62 l 74.715,56.705 z m -74.069,-58.105 45.216,-11.489 c 0.453,1.03 1.112,1.963 1.894,2.745 1.702,1.702 4.05,2.759 6.644,2.759 0.206,0 0.412,0 0.618,-0.041 l 15.524,61.592 z m 7.139,-30.954 37.377,13.906 c -0.11,0.535 -0.164,1.098 -0.164,1.661 0,0.192 0,0.385 0.027,0.576 l -45.641,11.613 z m -45.216,-59.147 92.16,-23.39 c 0.454,1.029 1.099,1.949 1.895,2.745 1.139,1.139 2.567,1.99 4.173,2.416 l -7.289,83.595 c -2.238,0.206 -4.242,1.194 -5.752,2.704 -0.535,0.535 -1.002,1.139 -1.372,1.784 l -38.682,-14.399 z m 4.365,-55.689 87.013,27.22 c -0.055,0.384 -0.082,0.782 -0.082,1.18 0,0.192 0,0.385 0.027,0.577 l -92.38,23.445 z m -13.809,-53.067 49.375,9.197 c 0,2.594 1.057,4.928 2.772,6.63 1.703,1.702 4.05,2.759 6.63,2.759 1.387,0 2.704,-0.302 3.885,-0.852 l 40.672,57.062 0.082,0.123 c -0.617,0.618 -1.139,1.332 -1.564,2.115 l -88.125,-27.577 z m 8.442,-12.56 h 32.642 l 10.899,15.292 c -0.865,0.892 -1.538,1.935 -1.977,3.102 l -49.21,-9.17 z m 58.489,0 -5.889,12.628 c -0.727,-0.192 -1.482,-0.288 -2.265,-0.288 -1.441,0 -2.814,0.329 -4.035,0.933 l -9.472,-13.273 z m 63.033,0 c 0.37,1.88 1.29,3.555 2.594,4.859 0.672,0.673 1.455,1.249 2.32,1.702 l -23.665,78.132 c -0.357,-0.041 -0.714,-0.068 -1.07,-0.068 -1.401,0 -2.732,0.301 -3.926,0.878 l -40.741,-57.171 c 1.675,-1.689 2.704,-4.022 2.704,-6.589 0,-2.581 -1.057,-4.928 -2.759,-6.63 -0.384,-0.398 -0.81,-0.755 -1.263,-1.057 l 6.548,-14.056 z m 10.981,-93.217 43.884,-30.556 0.055,-0.041 v 184.815 l -0.055,-0.083 -38.97,-56.114 c 1.688,-1.688 2.745,-4.008 2.745,-6.589 0,-2.58 -1.057,-4.927 -2.773,-6.643 -1.331,-1.318 -3.005,-2.238 -4.886,-2.594 z m 0,-51.722 42.1,18.242 -42.1,29.321 z m 47.302,21.125 0.055,0.041 76.429,53.232 c -0.521,1.153 -0.809,2.43 -0.809,3.775 0,2.772 1.221,5.285 3.143,6.987 l -29.8,49.21 c -1.03,-0.399 -2.142,-0.618 -3.308,-0.618 -2.595,0 -4.942,1.057 -6.645,2.759 -1.702,1.702 -2.758,4.049 -2.758,6.643 0,2.581 1.043,4.914 2.731,6.617 l -38.983,56.114 -0.055,0.082 z m 45.119,-21.633 34.33,71.172 c -0.356,0.261 -0.7,0.563 -1.015,0.879 -0.014,0.014 -0.014,0.014 -0.028,0.027 l -76.567,-53.328 z m 72.778,30.446 -28.811,39.751 c -1.222,-0.589 -2.581,-0.919 -4.009,-0.919 -0.891,0 -1.743,0.124 -2.566,0.371 l -33.054,-68.496 z m 34.564,37.734 -58.434,7.659 c -0.425,-1.372 -1.18,-2.621 -2.169,-3.637 l 28.827,-39.766 z m 4.476,50.212 -63.047,-36.472 c 0.33,-0.837 0.521,-1.743 0.563,-2.69 l 59.82,-7.852 z m 1.99,5.875 25.188,30.404 -49.223,9.183 C 4.118,70.871 3.445,69.814 2.595,68.922 Z M -39.876,-5.436 c 0.453,-0.315 0.879,-0.672 1.263,-1.057 0.151,-0.15 0.302,-0.302 0.425,-0.466 l 64.2,37.158 -26.177,36.704 c -1.222,-0.604 -2.594,-0.933 -4.049,-0.933 -0.782,0 -1.537,0.096 -2.265,0.288 z M -77.98,45.202 c -0.124,-0.124 -0.261,-0.261 -0.399,-0.357 l 29.774,-49.21 c 1.042,0.412 2.167,0.631 3.348,0.631 0.782,0 1.538,-0.095 2.266,-0.288 l 33.396,71.708 c -0.453,0.302 -0.879,0.659 -1.262,1.057 -1.703,1.702 -2.76,4.049 -2.76,6.63 0,2.567 1.03,4.9 2.719,6.589 l -40.755,57.157 c -1.195,-0.563 -2.512,-0.864 -3.912,-0.864 -0.371,0 -0.728,0.027 -1.084,0.068 L -80.314,60.191 c 0.865,-0.439 1.647,-1.016 2.334,-1.702 1.702,-1.702 2.758,-4.049 2.758,-6.644 0,-2.594 -1.056,-4.941 -2.758,-6.643 m 118.817,70.458 -88.125,27.564 c -0.426,-0.783 -0.947,-1.497 -1.565,-2.128 L -8.099,83.924 c 1.181,0.55 2.498,0.852 3.885,0.852 2.594,0 4.942,-1.057 6.644,-2.759 1.702,-1.702 2.745,-4.036 2.758,-6.616 L 54.577,66.19 Z m 5.34,56.019 -92.381,-23.445 c 0.028,-0.192 0.028,-0.385 0.028,-0.577 0,-0.398 -0.028,-0.782 -0.083,-1.167 L 40.74,119.271 Z M 43.967,117.157 58.846,63.609 30.171,28.991 27.22,-23.06 -8.771,-63.54 l -75.621,-32.354 -47.603,20.617 -49.059,-21.235 v 139.12 c -1.139,0.191 -2.21,0.617 -3.184,1.208 -0.659,0.384 -1.25,0.851 -1.785,1.386 -1.345,1.345 -2.279,3.074 -2.622,5.01 h -123.1 l -11.105,13.383 14.866,53.548 -5.93,57.336 46.986,57.748 -9.883,32.628 78.063,62.058 66.739,-10.871 65.998,10.748 0.741,0.123 78.063,-62.044 -9.883,-32.642 46.986,-57.762 z"
   style="fill:#ffffff;fill-rule:nonzero"
   id="path3830"
   inkscape:connector-curvature="0" />
        </g>
        <g
   transform="translate(713.568,373.885)"
   id="g3836">
            <path
   d="m 0,0.88 -0.796,0.59 -1.675,1.235 -0.068,0.041 v -2.21 l -1.607,-0.837 1.607,-1.18 0.068,-0.041 0.453,-0.344 1.043,1.414 0.179,0.247 z"
   style="fill:#ffffff;fill-rule:nonzero"
   id="path3834"
   inkscape:connector-curvature="0" />
        </g>
    </g>
    <defs
   id="defs3845">
        <linearGradient
   id="_Linear1"
   x1="0"
   y1="0"
   x2="1"
   y2="0"
   gradientUnits="userSpaceOnUse"
   gradientTransform="matrix(1,0,0,-1,0,-0.00298618)"><stop
     offset="0"
     style="stop-color:rgb(54,233,166);stop-opacity:1"
     id="stop3840" /><stop
     offset="1"
     style="stop-color:rgb(34,180,226);stop-opacity:1"
     id="stop3842" /></linearGradient>
    </defs>
</svg>