<svg width="1040" height="1001" viewBox="0 0 1040 1001" fill="none" xmlns="http://www.w3.org/2000/svg">
<path d="M284.826 546.52C284.808 545.59 284.926 544.663 285.177 543.766L341.367 354.735C341.779 353.327 342.563 352.056 343.634 351.054C344.706 350.052 346.027 349.354 347.458 349.036C348.89 348.718 350.382 348.788 351.777 349.243C353.172 349.696 354.42 350.515 355.391 351.614L501.734 518.166C502.725 519.301 503.387 520.684 503.65 522.167C503.913 523.652 503.765 525.178 503.223 526.584C502.695 527.964 501.801 529.174 500.639 530.086C499.475 530.996 498.085 531.573 496.619 531.753L294.09 554.302C292.774 554.395 291.456 554.176 290.242 553.662C289.027 553.147 287.953 552.352 287.106 551.343C285.825 550.037 285.022 548.338 284.826 546.52ZM352.862 373.639L304.421 536.636L479.029 517.174L352.862 373.639Z" fill="#30B3EC"/>
<path d="M835.437 326.936L820.79 319.446L721.915 512.789L736.563 520.279L835.437 326.936Z" fill="#30B3EC"/>
<path d="M569.89 670.369L558.658 658.406L725.161 502.647C726.397 501.474 727.969 500.718 729.657 500.488L939.634 472.59L941.779 488.895L734.407 516.447L569.89 670.369Z" fill="#30B3EC"/>
<path d="M432.493 125.166L419.146 134.716L557.447 328.027L570.794 318.478L432.493 125.166Z" fill="#30B3EC"/>
<path d="M167.385 485.081L158.092 471.492L326.057 355.022L196.576 312.322L201.735 296.748L346.931 344.373C348.382 344.859 349.67 345.739 350.651 346.913C351.633 348.088 352.269 349.512 352.489 351.027C352.71 352.541 352.506 354.088 351.899 355.494C351.293 356.899 350.309 358.109 349.057 358.989L167.385 485.081Z" fill="#30B3EC"/>
<path d="M332.411 372.029C343.278 378.581 357.398 375.084 363.95 364.217C370.502 353.351 367.005 339.23 356.139 332.678C345.271 326.125 331.151 329.623 324.599 340.49C318.047 351.356 321.544 365.476 332.411 372.029Z" fill="#30B3EC"/>
<path d="M718.868 528.315C729.734 534.868 743.855 531.37 750.408 520.504C756.96 509.637 753.462 495.516 742.596 488.964C731.729 482.412 717.608 485.909 711.056 496.775C704.504 507.642 708.001 521.763 718.868 528.315Z" fill="#30B3EC"/>
<path d="M472.605 524.667C473.198 537.342 483.955 547.137 496.63 546.544C509.305 545.951 519.1 535.195 518.507 522.52C517.914 509.844 507.158 500.05 494.483 500.643C481.808 501.236 472.012 511.991 472.605 524.667Z" fill="#30B3EC"/>
<path d="M270.074 547.213C270.667 559.888 281.423 569.683 294.098 569.091C306.774 568.498 316.569 557.741 315.976 545.066C315.383 532.391 304.627 522.596 291.951 523.189C279.276 523.782 269.481 534.538 270.074 547.213Z" fill="#30B3EC"/>
<path d="M244.463 734.532C243.575 733.993 242.76 733.341 242.04 732.592L207.546 697.1C205.935 695.429 204.83 693.334 204.364 691.059C203.897 688.785 204.087 686.424 204.913 684.253L241.912 587.667L227.43 544.28L160.908 482.451C159.668 481.315 158.683 479.93 158.017 478.386C157.351 476.843 157.02 475.175 157.046 473.494L157.711 330.167C157.717 328.123 158.236 326.113 159.219 324.32C160.202 322.528 161.618 321.01 163.339 319.906L198.451 297.96L278.334 180.839C279.669 178.91 281.522 177.398 283.679 176.477L421.072 118.786C422.548 118.118 424.142 117.747 425.762 117.697C427.382 117.646 428.997 117.915 430.513 118.49L579.842 178.988L638.09 174.425C640.94 174.164 643.788 174.945 646.106 176.624L828.361 309.116C829.481 309.948 830.468 310.947 831.286 312.078L942.514 474.965C944.203 477.466 944.903 480.506 944.478 483.495L928.952 595.185C928.622 597.504 927.618 599.675 926.065 601.429L814.814 728.86C813.731 730.114 812.403 731.135 810.91 731.855C809.418 732.577 807.794 732.983 806.137 733.051L661.658 739.197C658.857 739.314 656.103 738.445 653.877 736.74L565.33 670.253L456.306 652.424L255.497 735.436C253.719 736.174 251.79 736.476 249.871 736.319C247.952 736.162 246.099 735.549 244.463 734.532ZM230.087 685.938L253.524 709.971L449.721 628.651C451.811 627.766 454.108 627.491 456.348 627.856L572.065 646.767C574.008 647.06 575.845 647.839 577.408 649.03L664.807 714.905L799.951 709.278L905.373 588.472L919.671 485.305L812.477 327.646L635.409 198.999L578.944 203.519C577.053 203.687 575.149 203.389 573.4 202.652L425.686 143.048L296.768 197.543L216.968 313.996C216.068 315.373 214.877 316.536 213.478 317.4L182.123 337.221L181.414 468.306L246.075 528.454C247.555 529.855 248.67 531.598 249.325 533.528L266.395 583.745C267.239 586.338 267.233 589.132 266.378 591.72L230.087 685.938Z" fill="#30B3EC"/>
<path d="M735.723 498.071L720.251 503.544L800.842 731.365L816.313 725.892L735.723 498.071Z" fill="#30B3EC"/>
<path d="M296.171 185.115L280.63 190.389L336.499 355.059L352.04 349.787L296.171 185.115Z" fill="#30B3EC"/>
</svg>
