<?xml version="1.0" encoding="UTF-8" standalone="no"?>
<!DOCTYPE svg PUBLIC "-//W3C//DTD SVG 1.1//EN" "http://www.w3.org/Graphics/SVG/1.1/DTD/svg11.dtd">
<svg width="100%" height="100%" viewBox="0 0 430 446" version="1.1" xmlns="http://www.w3.org/2000/svg" xmlns:xlink="http://www.w3.org/1999/xlink" xml:space="preserve" xmlns:serif="http://www.serif.com/" style="fill-rule:evenodd;clip-rule:evenodd;stroke-linejoin:round;stroke-miterlimit:1.41421;">
    <g transform="matrix(1,0,0,1,-474.33,-68.182)">
        <g transform="matrix(220.943,-367.711,-367.711,-220.943,574.496,468.516)">
            <path d="M0.765,0.527C0.754,0.53 0.742,0.523 0.739,0.512C0.738,0.507 0.739,0.501 0.742,0.496C0.744,0.492 0.747,0.489 0.751,0.488L0.709,0.317L0.675,0.373L0.688,0.425C0.691,0.425 0.694,0.426 0.697,0.428C0.7,0.43 0.703,0.433 0.704,0.437C0.706,0.446 0.701,0.455 0.692,0.457C0.688,0.458 0.684,0.457 0.68,0.455C0.676,0.453 0.674,0.449 0.673,0.445C0.672,0.441 0.672,0.437 0.675,0.433C0.676,0.431 0.678,0.429 0.681,0.427L0.667,0.372L0.706,0.307L0.69,0.244L0.683,0.239L0.662,0.274C0.667,0.279 0.668,0.287 0.664,0.293C0.66,0.301 0.65,0.303 0.642,0.299C0.635,0.294 0.632,0.284 0.637,0.277C0.641,0.27 0.648,0.267 0.655,0.269L0.676,0.235L0.595,0.187L0.615,0.265L0.605,0.281L0.633,0.394L0.616,0.423L0.63,0.479C0.641,0.478 0.65,0.485 0.652,0.495C0.654,0.5 0.653,0.506 0.65,0.511C0.647,0.515 0.643,0.519 0.637,0.52C0.626,0.523 0.614,0.516 0.612,0.505C0.61,0.499 0.611,0.494 0.614,0.489C0.616,0.486 0.619,0.483 0.623,0.481L0.608,0.421L0.625,0.393L0.597,0.28L0.606,0.264L0.566,0.1L0.487,0.23L0.536,0.26L0.541,0.289L0.572,0.308L0.59,0.378L0.529,0.478C0.533,0.481 0.535,0.485 0.536,0.489C0.539,0.5 0.532,0.512 0.521,0.515C0.515,0.516 0.509,0.515 0.505,0.512C0.5,0.509 0.496,0.505 0.495,0.499C0.494,0.494 0.495,0.488 0.497,0.483C0.5,0.479 0.505,0.475 0.51,0.474C0.515,0.473 0.519,0.473 0.523,0.474L0.581,0.377L0.565,0.313L0.543,0.299L0.549,0.343L0.456,0.498C0.463,0.504 0.465,0.515 0.46,0.524C0.454,0.534 0.441,0.537 0.431,0.531C0.421,0.525 0.417,0.512 0.423,0.502C0.429,0.493 0.44,0.49 0.449,0.493L0.541,0.341L0.529,0.265L0.483,0.237L0.456,0.283L0.483,0.299L0.487,0.339L0.445,0.41C0.451,0.416 0.452,0.426 0.448,0.433C0.442,0.442 0.431,0.445 0.422,0.44C0.413,0.434 0.41,0.423 0.415,0.414C0.42,0.406 0.43,0.403 0.438,0.406L0.479,0.337L0.476,0.304L0.452,0.29L0.411,0.358L0.374,0.363L0.286,0.27L0.165,0.214L0.106,0.05L0.03,0.031L0,-0.195L0.101,-0.315L0.101,-0.315L0.159,-0.46L0.373,-0.54L0.426,-0.482L0.598,-0.506L0.705,-0.426L0.828,-0.392L0.863,-0.294L0.963,-0.225L1,-0.107L0.974,0.08L0.876,0.151L0.876,0.151L0.86,0.27L0.758,0.209L0.769,0.252L0.856,0.304C0.862,0.297 0.873,0.295 0.882,0.3C0.892,0.306 0.896,0.319 0.89,0.329C0.884,0.339 0.871,0.343 0.861,0.337C0.852,0.331 0.848,0.321 0.852,0.311L0.762,0.257L0.748,0.203L0.573,0.097L0.593,0.176L0.697,0.239L0.703,0.26L0.765,0.297L0.788,0.39C0.792,0.39 0.796,0.391 0.799,0.393C0.804,0.396 0.808,0.401 0.809,0.406C0.812,0.418 0.805,0.429 0.794,0.432C0.788,0.433 0.783,0.432 0.778,0.43C0.773,0.427 0.77,0.422 0.768,0.417C0.767,0.411 0.768,0.405 0.771,0.401C0.773,0.397 0.776,0.394 0.78,0.392L0.758,0.303L0.705,0.271L0.759,0.486C0.763,0.486 0.767,0.487 0.771,0.489C0.775,0.492 0.779,0.496 0.78,0.502C0.782,0.507 0.78,0.513 0.778,0.518C0.775,0.522 0.77,0.526 0.765,0.527ZM0.747,0.51C0.749,0.517 0.756,0.521 0.763,0.52C0.766,0.519 0.769,0.517 0.771,0.514C0.773,0.511 0.773,0.507 0.772,0.504C0.771,0.497 0.764,0.492 0.757,0.494C0.753,0.495 0.75,0.497 0.749,0.5C0.747,0.503 0.746,0.507 0.747,0.51ZM0.865,0.33C0.871,0.333 0.879,0.331 0.883,0.325C0.886,0.319 0.884,0.311 0.878,0.307C0.872,0.303 0.864,0.305 0.86,0.312C0.856,0.318 0.858,0.326 0.865,0.33ZM0.776,0.415C0.777,0.418 0.779,0.421 0.782,0.423C0.785,0.424 0.788,0.425 0.792,0.424C0.795,0.423 0.798,0.421 0.8,0.418C0.802,0.415 0.802,0.412 0.801,0.408C0.801,0.405 0.798,0.402 0.795,0.4C0.792,0.398 0.789,0.398 0.785,0.399C0.782,0.4 0.779,0.402 0.777,0.405C0.776,0.408 0.775,0.411 0.776,0.415ZM0.681,0.443C0.681,0.445 0.682,0.447 0.684,0.448C0.686,0.449 0.688,0.45 0.69,0.449C0.692,0.449 0.694,0.447 0.695,0.445C0.696,0.444 0.697,0.441 0.696,0.439C0.696,0.437 0.694,0.435 0.692,0.434C0.691,0.433 0.688,0.433 0.686,0.433C0.684,0.434 0.682,0.435 0.681,0.437C0.68,0.439 0.68,0.441 0.681,0.443ZM0.619,0.503C0.621,0.51 0.628,0.514 0.635,0.513C0.642,0.511 0.646,0.504 0.645,0.497C0.643,0.49 0.636,0.485 0.629,0.487C0.625,0.488 0.622,0.49 0.621,0.493C0.619,0.496 0.618,0.5 0.619,0.503ZM0.646,0.292C0.65,0.294 0.655,0.293 0.658,0.289C0.66,0.285 0.659,0.28 0.655,0.278C0.651,0.276 0.646,0.277 0.644,0.281C0.641,0.285 0.643,0.289 0.646,0.292ZM0.503,0.497C0.504,0.501 0.506,0.504 0.509,0.505C0.512,0.507 0.515,0.508 0.519,0.507C0.522,0.506 0.525,0.504 0.527,0.501C0.529,0.498 0.529,0.494 0.528,0.491C0.527,0.488 0.525,0.485 0.522,0.483C0.519,0.481 0.516,0.481 0.512,0.481C0.509,0.482 0.506,0.485 0.504,0.488C0.503,0.49 0.502,0.494 0.503,0.497ZM0.435,0.524C0.441,0.528 0.449,0.526 0.453,0.52C0.456,0.514 0.454,0.506 0.448,0.502C0.442,0.498 0.434,0.5 0.43,0.506C0.427,0.513 0.429,0.521 0.435,0.524ZM0.426,0.433C0.431,0.436 0.438,0.434 0.441,0.429C0.444,0.424 0.442,0.417 0.437,0.414C0.432,0.411 0.425,0.413 0.422,0.418C0.419,0.423 0.421,0.43 0.426,0.433Z" style="fill:url(#_Linear1);fill-rule:nonzero;"/>
        </g>
        <g transform="matrix(1,0,0,1,714.502,497.247)">
            <path d="M0,-381.01L-0.055,-381.051L-0.055,-196.209L0,-196.291L0,-381.01ZM-0.055,-190.21L-0.055,-126.656L-1.743,-125.778L-3.404,-126.642L-3.404,-120.657L-1.729,-121.893L-0.055,-120.671L-0.055,0.041L0.014,0L0.014,-190.32L-0.055,-190.21Z" style="fill:white;fill-rule:nonzero;"/>
        </g>
        <g transform="matrix(1,0,0,1,716.122,371.827)">
            <path d="M0,1.743L-1.606,2.58L-1.675,2.607L-2.443,3.006L-3.157,1.605L-3.35,1.263L-4.009,-0.028L-3.363,-0.358L-1.675,-1.236L-1.606,-1.263L-1.606,0.562L0,1.743Z" style="fill:white;fill-rule:nonzero;"/>
        </g>
        <g transform="matrix(1,0,0,1,716.122,375.079)">
            <path d="M0,-1.509L-1.606,-0.672L-1.606,1.552L-1.675,1.497L-3.35,0.275L-4.146,-0.315L-3.35,-1.4L-3.157,-1.647L-2.114,-3.061L-1.675,-2.731L-1.606,-2.69L0,-1.509Z" style="fill:white;fill-rule:nonzero;"/>
        </g>
        <g transform="matrix(-0.55238,-0.833592,-0.833592,0.55238,788.071,157.537)">
            <path d="M-77.073,143.429L-76.973,143.429L76.984,41.409L76.987,41.34L-77.073,143.429Z" style="fill:white;fill-rule:nonzero;"/>
        </g>
        <g transform="matrix(1,0,0,1,714.447,433.61)">
            <path d="M0,-63.018L0,-57.034L-1.675,-58.255L-3.35,-57.02L-3.35,63.678L-3.418,63.624L-3.418,-126.696L-3.35,-126.614L-3.35,-63.004L-1.688,-62.14L0,-63.018Z" style="fill:white;fill-rule:nonzero;"/>
        </g>
        <g transform="matrix(1,0,0,1,713.432,373.612)">
            <path d="M0,-1.798L-0.659,-0.522L-0.838,-0.179L-1.565,1.235L-2.334,0.837L-2.402,0.809L-4.009,-0.027L-2.402,-1.208L-2.402,-3.033L-2.334,-3.006L-0.673,-2.142L0,-1.798Z" style="fill:white;fill-rule:nonzero;"/>
        </g>
        <g transform="matrix(1,0,0,1,844.781,186.38)">
            <path d="M0,230.401L-0.014,230.415L-38.682,244.814C-39.065,244.155 -39.532,243.565 -40.068,243.03C-41.564,241.534 -43.568,240.532 -45.806,240.326L-53.095,156.717C-51.502,156.291 -50.074,155.44 -48.936,154.301C-48.139,153.505 -47.494,152.585 -47.041,151.556L45.105,174.946L0,230.401ZM8.318,261.849L-37.336,250.236C-37.309,250.045 -37.309,249.866 -37.309,249.673C-37.309,249.097 -37.363,248.534 -37.474,247.999L-0.096,234.093L8.318,261.849ZM-62.854,320.627L-47.315,259.035C-47.109,259.076 -46.918,259.076 -46.712,259.076C-44.117,259.076 -41.771,258.019 -40.068,256.303C-39.271,255.507 -38.627,254.588 -38.174,253.558L7.056,265.061L-62.854,320.627ZM-67.014,323.179L-127.781,313.269L-53.039,256.578C-52.326,257.251 -51.516,257.799 -50.624,258.198L-67.014,323.179ZM-130.334,310.908L-130.334,190.196L-132.009,188.974L-133.684,190.21L-133.684,310.908L-133.752,310.853L-208.905,253.846C-208.26,252.584 -207.903,251.156 -207.903,249.66C-207.903,248.191 -208.247,246.791 -208.878,245.542L-133.752,190.251L-133.752,188.041L-135.358,187.204L-210.909,242.783C-211.994,241.767 -213.325,241.012 -214.794,240.614L-207.505,157.005C-204.856,156.744 -202.522,155.372 -200.985,153.367L-135.358,187.204L-133.752,186.023L-133.752,184.198L-199.434,150.334C-199.173,149.483 -199.036,148.59 -199.036,147.657C-199.036,145.063 -200.093,142.716 -201.795,141.013C-202.467,140.341 -203.25,139.764 -204.101,139.325L-180.422,61.193C-180.08,61.234 -179.736,61.248 -179.393,61.248C-178.021,61.248 -176.716,60.946 -175.536,60.397L-133.752,120.533L-133.684,120.616L-133.684,184.225L-132.022,185.089L-130.334,184.212L-130.334,120.657L-130.266,120.547L-88.495,60.397C-87.314,60.946 -86.011,61.248 -84.624,61.248C-84.268,61.248 -83.925,61.234 -83.581,61.18L-59.903,139.325C-60.754,139.764 -61.536,140.341 -62.209,141.013C-63.911,142.716 -64.968,145.063 -64.968,147.657C-64.968,148.577 -64.831,149.469 -64.584,150.32L-130.266,184.184L-130.266,186.009L-128.659,187.19L-63.019,153.367C-61.481,155.372 -59.147,156.744 -56.499,157.005L-49.21,240.628C-50.679,241.012 -51.996,241.767 -53.081,242.797L-53.095,242.797L-128.659,187.19L-130.266,188.027L-130.266,190.251L-55.14,245.542C-55.771,246.791 -56.114,248.191 -56.114,249.673C-56.114,251.17 -55.758,252.584 -55.112,253.846L-130.266,310.867L-130.334,310.908ZM-196.991,323.152L-213.38,258.184C-212.488,257.786 -211.664,257.237 -210.951,256.564L-136.236,313.269L-196.991,323.152ZM-271.06,265.047L-225.844,253.558C-225.391,254.588 -224.732,255.521 -223.95,256.303C-222.248,258.005 -219.9,259.062 -217.306,259.062C-217.1,259.062 -216.894,259.062 -216.688,259.021L-201.164,320.613L-271.06,265.047ZM-263.921,234.093L-226.544,247.999C-226.654,248.534 -226.708,249.097 -226.708,249.66C-226.708,249.852 -226.708,250.045 -226.681,250.236L-272.322,261.849L-263.921,234.093ZM-309.137,174.946L-216.977,151.556C-216.523,152.585 -215.878,153.505 -215.082,154.301C-213.943,155.44 -212.515,156.291 -210.909,156.717L-218.198,240.312C-220.436,240.518 -222.44,241.506 -223.95,243.016C-224.485,243.551 -224.952,244.155 -225.322,244.8L-264.004,230.401L-309.137,174.946ZM-304.772,119.257L-217.759,146.477C-217.814,146.861 -217.841,147.259 -217.841,147.657C-217.841,147.849 -217.841,148.042 -217.814,148.234L-310.194,171.679L-304.772,119.257ZM-318.581,66.19L-269.206,75.387C-269.206,77.981 -268.149,80.315 -266.434,82.017C-264.731,83.719 -262.384,84.776 -259.804,84.776C-258.417,84.776 -257.1,84.474 -255.919,83.924L-215.247,140.986L-215.165,141.109C-215.782,141.727 -216.304,142.441 -216.729,143.224L-304.854,115.647L-318.581,66.19ZM-310.139,53.63L-277.497,53.63L-266.598,68.922C-267.463,69.814 -268.136,70.857 -268.575,72.024L-317.785,62.854L-310.139,53.63ZM-251.65,53.63L-257.539,66.258C-258.266,66.066 -259.021,65.97 -259.804,65.97C-261.245,65.97 -262.618,66.299 -263.839,66.903L-273.311,53.63L-251.65,53.63ZM-188.617,53.63C-188.247,55.51 -187.327,57.185 -186.023,58.489C-185.351,59.162 -184.568,59.738 -183.703,60.191L-207.368,138.323C-207.725,138.282 -208.082,138.255 -208.438,138.255C-209.839,138.255 -211.17,138.556 -212.364,139.133L-253.105,81.962C-251.43,80.273 -250.401,77.94 -250.401,75.373C-250.401,72.792 -251.458,70.445 -253.16,68.743C-253.544,68.345 -253.97,67.988 -254.423,67.686L-247.875,53.63L-188.617,53.63ZM-177.636,-39.587L-133.752,-70.143L-133.697,-70.184L-133.697,114.631L-133.752,114.548L-172.722,58.434C-171.034,56.746 -169.977,54.426 -169.977,51.845C-169.977,49.265 -171.034,46.918 -172.75,45.202C-174.081,43.884 -175.755,42.964 -177.636,42.608L-177.636,-39.587ZM-177.636,-91.309L-135.536,-73.067L-177.636,-43.746L-177.636,-91.309ZM-130.334,-70.184L-130.279,-70.143L-53.85,-16.911C-54.371,-15.758 -54.659,-14.481 -54.659,-13.136C-54.659,-10.364 -53.438,-7.851 -51.516,-6.149L-81.316,43.061C-82.346,42.662 -83.458,42.443 -84.624,42.443C-87.219,42.443 -89.566,43.5 -91.269,45.202C-92.971,46.904 -94.027,49.251 -94.027,51.845C-94.027,54.426 -92.984,56.759 -91.296,58.462L-130.279,114.576L-130.334,114.658L-130.334,-70.184ZM-85.215,-91.817L-50.885,-20.645C-51.241,-20.384 -51.585,-20.082 -51.9,-19.766C-51.914,-19.752 -51.914,-19.752 -51.928,-19.739L-128.495,-73.067L-85.215,-91.817ZM-12.437,-61.371L-41.248,-21.62C-42.47,-22.209 -43.829,-22.539 -45.257,-22.539C-46.148,-22.539 -47,-22.415 -47.823,-22.168L-80.877,-90.664L-12.437,-61.371ZM22.127,-23.637L-36.307,-15.978C-36.732,-17.35 -37.487,-18.599 -38.476,-19.615L-9.649,-59.381L22.127,-23.637ZM26.603,26.575L-36.444,-9.897C-36.114,-10.734 -35.923,-11.64 -35.881,-12.587L23.939,-20.439L26.603,26.575ZM28.593,32.45L53.781,62.854L4.558,72.037C4.118,70.871 3.445,69.814 2.595,68.922L28.593,32.45ZM-39.876,-5.436C-39.423,-5.751 -38.997,-6.108 -38.613,-6.493C-38.462,-6.643 -38.311,-6.795 -38.188,-6.959L26.012,30.199L-0.165,66.903C-1.387,66.299 -2.759,65.97 -4.214,65.97C-4.996,65.97 -5.751,66.066 -6.479,66.258L-39.876,-5.436ZM-77.98,45.202C-78.104,45.078 -78.241,44.941 -78.379,44.845L-48.605,-4.365C-47.563,-3.953 -46.438,-3.734 -45.257,-3.734C-44.475,-3.734 -43.719,-3.829 -42.991,-4.022L-9.595,67.686C-10.048,67.988 -10.474,68.345 -10.857,68.743C-12.56,70.445 -13.617,72.792 -13.617,75.373C-13.617,77.94 -12.587,80.273 -10.898,81.962L-51.653,139.119C-52.848,138.556 -54.165,138.255 -55.565,138.255C-55.936,138.255 -56.293,138.282 -56.649,138.323L-80.314,60.191C-79.449,59.752 -78.667,59.175 -77.98,58.489C-76.278,56.787 -75.222,54.44 -75.222,51.845C-75.222,49.251 -76.278,46.904 -77.98,45.202M40.837,115.66L-47.288,143.224C-47.714,142.441 -48.235,141.727 -48.853,141.096L-8.099,83.924C-6.918,84.474 -5.601,84.776 -4.214,84.776C-1.62,84.776 0.728,83.719 2.43,82.017C4.132,80.315 5.175,77.981 5.188,75.401L54.577,66.19L40.837,115.66ZM46.177,171.679L-46.204,148.234C-46.176,148.042 -46.176,147.849 -46.176,147.657C-46.176,147.259 -46.204,146.875 -46.259,146.49L40.74,119.271L46.177,171.679ZM43.967,117.157L58.846,63.609L30.171,28.991L27.22,-23.06L-8.771,-63.54L-84.392,-95.894L-131.995,-75.277L-181.054,-96.512L-181.054,42.608C-182.193,42.799 -183.264,43.225 -184.238,43.816C-184.897,44.2 -185.488,44.667 -186.023,45.202C-187.368,46.547 -188.302,48.276 -188.645,50.212L-311.745,50.212L-322.85,63.595L-307.984,117.143L-313.914,174.479L-266.928,232.227L-276.811,264.855L-198.748,326.913L-132.009,316.042L-66.011,326.79L-65.27,326.913L12.793,264.869L2.91,232.227L49.896,174.465L43.967,117.157Z" style="fill:white;fill-rule:nonzero;"/>
        </g>
        <g transform="matrix(1,0,0,1,713.568,373.885)">
            <path d="M0,0.88L-0.796,1.47L-2.471,2.705L-2.539,2.746L-2.539,0.536L-4.146,-0.301L-2.539,-1.481L-2.471,-1.522L-2.018,-1.866L-0.975,-0.452L-0.796,-0.205L0,0.88Z" style="fill:white;fill-rule:nonzero;"/>
        </g>
    </g>
    <defs>
        <linearGradient id="_Linear1" x1="0" y1="0" x2="1" y2="0" gradientUnits="userSpaceOnUse" gradientTransform="matrix(1,5.55112e-17,5.55112e-17,-1,0,-0.00298618)"><stop offset="0" style="stop-color:rgb(54,233,166);stop-opacity:1"/><stop offset="1" style="stop-color:rgb(34,180,226);stop-opacity:1"/></linearGradient>
    </defs>
</svg>
