<?xml version="1.0" encoding="UTF-8" standalone="no"?>
<!-- Created with Inkscape (http://www.inkscape.org/) -->

<svg
   xmlns:dc="http://purl.org/dc/elements/1.1/"
   xmlns:cc="http://creativecommons.org/ns#"
   xmlns:rdf="http://www.w3.org/1999/02/22-rdf-syntax-ns#"
   xmlns:svg="http://www.w3.org/2000/svg"
   xmlns="http://www.w3.org/2000/svg"
   xmlns:sodipodi="http://sodipodi.sourceforge.net/DTD/sodipodi-0.dtd"
   xmlns:inkscape="http://www.inkscape.org/namespaces/inkscape"
   version="1.1"
   id="svg3713"
   width="255.03999"
   height="32"
   viewBox="0 0 255.03999 32"
   sodipodi:docname="Strise_Logo_Registered_RGB.svg"
   inkscape:version="0.92.3 (2405546, 2018-03-11)">
  <metadata
     id="metadata3719">
    <rdf:RDF>
      <cc:Work
         rdf:about="">
        <dc:format>image/svg+xml</dc:format>
        <dc:type
           rdf:resource="http://purl.org/dc/dcmitype/StillImage" />
        <dc:title></dc:title>
      </cc:Work>
    </rdf:RDF>
  </metadata>
  <defs
     id="defs3717" />
  <sodipodi:namedview
     pagecolor="#ffffff"
     bordercolor="#666666"
     borderopacity="1"
     objecttolerance="10"
     gridtolerance="10"
     guidetolerance="10"
     inkscape:pageopacity="0"
     inkscape:pageshadow="2"
     inkscape:window-width="1920"
     inkscape:window-height="1017"
     id="namedview3715"
     showgrid="false"
     inkscape:zoom="6.9204832"
     inkscape:cx="126.40152"
     inkscape:cy="16"
     inkscape:window-x="-8"
     inkscape:window-y="-8"
     inkscape:window-maximized="1"
     inkscape:current-layer="g3741" />
  <g
     id="g3741"
     transform="translate(0.43349592,51.007999)">
    <path
       style="fill:#333333;fill-opacity:1;stroke-width:0.31999999"
       d="m 133.5697,-19.89848 c -3.03387,-0.84985 -5.31576,-3.195458 -5.98187,-6.14888 l -0.24587,-1.090181 2.6063,0.0033 2.6063,0.0033 0.53888,1.282935 c 1.67041,3.976832 9.481,2.97955 8.46201,-1.080458 -0.30857,-1.229411 -1.31365,-1.738422 -5.45493,-2.762566 -2.04164,-0.504901 -4.18116,-1.207909 -4.75448,-1.56224 -4.06462,-2.512074 -4.57204,-7.452607 -1.08029,-10.518401 3.25757,-2.860183 10.7946,-2.59732 14.08916,0.491377 1.0959,1.027424 2.10284,3.078292 2.11262,4.302844 l 0.007,0.880001 h -2.49572 -2.49571 l -0.4015,-1.110312 c -0.48725,-1.347477 -1.65897,-2.322888 -3.11954,-2.596891 -3.73951,-0.701538 -6.46398,2.357472 -3.96926,4.456645 1.07907,0.907975 1.03177,0.89072 4.92727,1.797681 3.55577,0.827864 5.78993,2.018015 6.87996,3.664999 0.70375,1.063316 0.8345,1.618979 0.8345,3.54641 0,3.017341 -0.91322,4.500102 -3.57302,5.801423 -1.56947,0.76787 -2.30215,0.915627 -4.89632,0.987423 -1.8495,0.05119 -3.65893,-0.08596 -4.59552,-0.348317 z m 65.13044,-0.165214 c -2.97521,-1.027653 -5.1179,-3.329166 -5.61749,-6.033847 l -0.19209,-1.04 h 2.52564 2.52564 l 0.58636,1.179349 c 0.79182,1.59261 1.87809,2.315345 3.82684,2.546146 3.17875,0.376476 5.20231,-0.997763 4.78044,-3.246505 -0.27835,-1.483698 -1.15232,-2.010865 -4.57617,-2.760264 -6.90876,-1.512161 -9.34298,-3.718231 -8.97668,-8.135326 0.30771,-3.710589 3.18603,-5.903401 8.08652,-6.160611 5.63254,-0.295633 9.44024,2.092778 10.2543,6.432095 l 0.22233,1.185116 -2.51561,-0.0033 -2.51562,-0.0033 -0.52262,-1.244881 c -0.72905,-1.736562 -1.91442,-2.428609 -4.15984,-2.428609 -2.37235,0 -3.59297,0.819674 -3.7367,2.509304 -0.1562,1.836153 0.89038,2.564942 5.10148,3.552402 1.93307,0.453284 4.05998,1.102351 4.72647,1.442371 2.3414,1.194494 3.87647,3.680831 3.8624,6.255923 -0.0137,2.513093 -2.35119,5.224572 -5.24927,6.089191 -2.1994,0.656177 -6.33693,0.589799 -8.43633,-0.135344 z m 23.40736,-0.03245 c -4.96658,-1.626986 -7.77974,-6.449872 -7.39155,-12.672085 0.38032,-6.095988 4.13353,-10.303506 9.71101,-10.886468 2.32509,-0.24302 5.32678,0.456949 7.15892,1.6694 2.60411,1.72332 4.16867,5.215931 4.16867,9.305837 v 2.34192 h -8.18542 -8.18543 l 0.2262,1.04 c 0.52111,2.395987 2.07181,4.488238 3.88938,5.247666 2.50475,1.046552 5.59987,0.216028 6.75399,-1.812322 0.52708,-0.926337 0.60636,-0.951351 3.02128,-0.953321 1.364,-0.0011 2.48,0.05239 2.48,0.118897 0,0.445635 -1.06435,2.495657 -1.874,3.609449 -2.17752,2.995515 -7.57409,4.366552 -11.77305,2.991027 z m 8.84705,-14.513645 c 0,-1.64477 -1.37437,-3.741585 -3.01003,-4.592248 -1.37549,-0.715358 -4.56235,-0.443575 -5.89082,0.502384 -1.10478,0.786668 -2.29915,2.796743 -2.29915,3.869364 0,0.632131 0.17688,0.652749 5.6,0.652749 4.4895,0 5.6,-0.08572 5.6,-0.432249 z m -75.51999,13.95175 c -0.72892,-0.364134 -1.37141,-1.058066 -1.84,-1.987307 -0.68648,-1.361321 -0.72,-1.782258 -0.72,-9.04 v -7.612195 h -2.24 -2.24 v -1.92 -1.920001 h 2.24 2.24 v -4 -4 h 2.56 2.56 v 4 4 h 2.72 2.72 v 1.907059 1.907058 l -2.64,0.09294 -2.64,0.09294 -0.0865,6.847617 c -0.1066,8.439019 -0.30789,8.032383 3.9761,8.032383 h 2.99041 v 2.08 2.08 l -4.24,-5.12e-4 c -3.39556,-3.84e-4 -4.46306,-0.111928 -5.36,-0.56 z m 12.48,-10.959502 v -11.520001 h 2.58914 2.58914 l -0.10577,2.056706 c -0.1187,2.308088 0.17475,2.974711 0.69889,1.587675 0.88489,-2.341681 3.50734,-3.946042 6.4686,-3.957353 l 1.84,-0.007 v 2.400001 2.4 h -2.21917 c -3.42635,0 -4.97723,0.849241 -6.13602,3.36 -0.51619,1.11844 -0.59165,2.15848 -0.59779,8.24 l -0.007,6.96 h -2.56 -2.56 z m 16.64,0 v -11.520001 h 2.56 2.56 v 11.520001 11.52 h -2.56 -2.56 z m -184.95999211,-0.64 v -2.24 H 53.994566 108.39456 v 2.24 2.24 H 53.994566 -0.40543211 Z M 247.10893,-32.766544 c -0.17291,-0.04322 -0.8673,-0.171329 -1.5431,-0.284681 -1.60843,-0.269782 -3.8445,-2.323487 -4.55476,-4.183283 -1.28284,-3.35905 0.10809,-6.892589 3.36284,-8.543034 2.63068,-1.333981 5.27507,-1.064078 7.4939,0.764871 4.4102,3.635256 2.56669,11.01488 -3.012,12.057091 -0.78788,0.147192 -1.57398,0.232258 -1.74688,0.189036 z m 4.22214,-1.60645 c 2.01694,-1.624431 2.70625,-3.116988 2.58798,-5.603668 -0.12916,-2.715365 -1.19046,-4.377714 -3.5435,-5.550285 -1.93047,-0.961991 -3.71248,-1.029813 -5.501,-0.209366 -5.2337,2.400851 -5.41564,9.226179 -0.32,12.004346 0.69317,0.377919 1.59831,0.498515 3.25652,0.433878 2.01664,-0.07861 2.44562,-0.209605 3.52,-1.074905 z m -6.23732,-5.164547 -0.0592,-3.600001 h 1.78104 c 2.34294,0 3.01896,0.382301 3.01896,1.707259 0,0.574608 -0.18,1.235542 -0.4,1.468742 -0.32,0.3392 -0.32,0.453333 0,0.570666 0.25901,0.09497 0.38228,0.729435 0.34973,1.8 l -0.0503,1.653334 -0.18973,-1.6 -0.18973,-1.6 -1.98276,-0.09482 -1.98276,-0.09482 -0.11804,1.694823 c -0.0649,0.932152 -0.14469,0.07482 -0.17724,-1.905178 z m 3.80184,-0.411259 c 0.70151,-0.375437 0.84343,-1.876272 0.23496,-2.484742 -0.2112,-0.2112 -1.1472,-0.384 -2.08,-0.384 h -1.696 v 1.600001 1.6 h 1.46104 c 0.80357,0 1.73957,-0.149067 2.08,-0.331259 z m -64.34103,-8.308742 v -2.88 h 2.56 2.56 v 2.88 2.88 h -2.56 -2.56 z"
       id="path3743"
       inkscape:connector-curvature="0" />
    <path
       style="fill:#ffffff;stroke-width:0.14449859"
       d="m 245.93733,17.550609 c -1.48256,-0.38805 -3.23188,-1.955668 -4.00593,-3.58983 -0.43931,-0.92746 -0.46457,-1.07117 -0.46457,-2.642533 0,-1.5659 0.0264,-1.7173973 0.45727,-2.6269277 1.76172,-3.7186142 6.09029,-4.9671728 9.52475,-2.747375 1.91413,1.2371598 2.65659,2.6026681 2.77102,5.0964007 0.0827,1.801696 -0.13514,2.7525 -0.87907,3.837083 -0.61357,0.89455 -2.22166,2.256148 -2.94064,2.489898 -0.66377,0.215798 -3.8402,0.346252 -4.46283,0.183284 z m 4.26604,-5.070769 c -0.058,-0.463103 -0.19047,-0.846967 -0.32069,-0.929109 -0.19454,-0.122712 -0.18398,-0.19127 0.0857,-0.556004 0.23665,-0.320094 0.30819,-0.627071 0.31023,-1.3311836 0.004,-1.528707 -0.49613,-1.8111108 -3.21245,-1.8124574 l -1.62561,-8.059e-4 0.0171,2.5648499 c 0.0202,3.03251 0.1618,4.013108 0.34138,2.3644 l 0.11627,-1.067442 1.17149,0.09121 c 0.64432,0.05017 1.50447,0.0916 1.91144,0.09208 l 0.73996,8.67e-4 0.0965,0.903116 c 0.0531,0.496714 0.14172,1.228238 0.19702,1.625609 l 0.10056,0.722493 0.085,-0.939241 c 0.0467,-0.516582 0.0405,-1.294352 -0.0138,-1.728377 z"
       id="path3797"
       inkscape:connector-curvature="0"
       transform="translate(-0.43349592,-51.007999)" />
    <path
       style="fill:#ffffff;stroke-width:0.14449859"
       d=""
       id="path3799"
       inkscape:connector-curvature="0"
       transform="translate(-0.43349592,-51.007999)" />
    <path
       style="fill:#ffffff;stroke-width:0.14449859"
       d=""
       id="path3801"
       inkscape:connector-curvature="0"
       transform="translate(-0.43349592,-51.007999)" />
    <path
       style="fill:#ffffff;stroke-width:0.14449859"
       d="m 245.83286,17.518378 c -1.35582,-0.319232 -3.13857,-1.947294 -3.90581,-3.566887 -0.4343,-0.916789 -0.46022,-1.065112 -0.46022,-2.633245 0,-1.5681327 0.0259,-1.7164563 0.46022,-2.6332451 1.09272,-2.3066634 3.44825,-3.869191 5.83287,-3.869191 2.5483,0 5.22403,1.7057764 6.08659,3.8802068 0.27518,0.6937032 0.32463,1.0975263 0.32994,2.6944783 0.006,1.729182 -0.0236,1.941647 -0.36903,2.673224 -0.81448,1.724818 -2.60968,3.212596 -4.17642,3.46123 -1.11567,0.177048 -3.03238,0.173733 -3.79814,-0.0066 z m 4.37613,-4.099274 c 0,-1.333025 -0.0347,-1.543894 -0.29336,-1.784915 -0.25514,-0.237694 -0.26558,-0.296372 -0.0801,-0.450292 0.36088,-0.299502 0.58365,-1.6130647 0.37882,-2.233711 -0.28879,-0.8750355 -0.65348,-1.0129756 -2.8476,-1.0770928 l -1.92619,-0.056287 0.0171,2.5093368 c 0.0202,2.960452 0.15762,3.927966 0.33821,2.380676 l 0.11621,-0.995654 1.30368,0.09254 c 0.71702,0.05089 1.57683,0.09254 1.9107,0.09254 h 0.60702 l 0.17981,1.517235 c 0.0989,0.83448 0.20589,1.517236 0.23777,1.517236 0.0319,0 0.058,-0.680223 0.058,-1.511607 z"
       id="path3803"
       inkscape:connector-curvature="0"
       transform="translate(-0.43349592,-51.007999)" />
    <path
       style="fill:#ffffff;stroke-width:0.14449859"
       d="m 245.72888,17.481026 c -1.37167,-0.370157 -3.03801,-1.917154 -3.80183,-3.529535 -0.4343,-0.916789 -0.46022,-1.065112 -0.46022,-2.633245 0,-1.5681327 0.0259,-1.7164563 0.46022,-2.6332451 1.38625,-2.9263086 4.6512,-4.4958002 7.56935,-3.6386609 1.9881,0.5839611 3.70436,2.0184815 4.34268,3.6298102 0.28368,0.7160903 0.33202,1.1050367 0.33737,2.7143448 0.006,1.742467 -0.0218,1.938308 -0.38101,2.704734 -0.79381,1.69364 -2.60043,3.18152 -4.16444,3.42972 -1.2367,0.196257 -3.08938,0.175403 -3.90212,-0.04392 z m 4.21726,-5.72483 c -0.24559,-0.332173 -0.25231,-0.40461 -0.0639,-0.688433 0.35031,-0.527591 0.49354,-1.4419213 0.32433,-2.0703309 -0.23555,-0.8747566 -0.70608,-1.0552119 -2.92372,-1.1212836 l -1.84235,-0.054891 0.008,2.2903645 c 0.005,1.2597 0.0579,2.550461 0.11852,2.868358 l 0.11019,0.577994 0.11482,-0.92382 0.11481,-0.92382 1.39228,0.09221 c 0.76574,0.05071 1.62861,0.09254 1.91749,0.09295 l 0.52522,7.47e-4 0.0947,0.830867 c 0.23524,2.064586 0.29764,2.2044 0.34181,0.765839 0.0355,-1.157065 3e-5,-1.422186 -0.23253,-1.73675 z"
       id="path3805"
       inkscape:connector-curvature="0"
       transform="translate(-0.43349592,-51.007999)" />
    <path
       style="fill:#ffffff;stroke-width:0.14449859"
       d="m 245.6423,17.471256 c -1.35538,-0.424217 -2.97627,-1.959821 -3.71525,-3.519765 -0.4343,-0.916789 -0.46022,-1.065112 -0.46022,-2.633245 0,-1.5681327 0.0259,-1.7164563 0.46022,-2.6332451 1.09039,-2.3017585 3.44886,-3.869191 5.82186,-3.869191 2.32445,0 4.79623,1.3956601 5.81926,3.2857791 0.82079,1.5164471 0.92884,4.454879 0.2204,5.99364 -0.7479,1.624482 -2.57315,3.159596 -4.07574,3.427872 -1.14992,0.205308 -3.33796,0.17744 -4.07053,-0.05185 z m 4.30776,-5.711623 c -0.26368,-0.358471 -0.26389,-0.381664 -0.007,-0.802633 0.26459,-0.433695 0.36923,-1.8025665 0.17623,-2.3055039 -0.19197,-0.5002584 -0.93354,-0.7020862 -2.83634,-0.7719394 l -1.84235,-0.067635 0.0107,2.150533 c 0.006,1.1827933 0.0579,2.4431433 0.11568,2.8007773 l 0.10496,0.650243 0.11147,-0.830866 0.11147,-0.830867 0.53147,7.51e-4 c 0.29231,4.05e-4 1.15914,0.04232 1.92629,0.09312 l 1.39482,0.09237 0.0939,0.809995 c 0.1996,1.721204 0.2931,1.887584 0.33783,0.601139 0.0351,-1.011054 -0.004,-1.283655 -0.22911,-1.589485 z"
       id="path3807"
       inkscape:connector-curvature="0"
       transform="translate(-0.43349592,-51.007999)" />
    <path
       style="fill:#ffffff;stroke-width:0.14449859"
       d="m 245.6423,17.481198 c -1.37608,-0.453767 -2.97996,-1.977544 -3.71525,-3.529707 -0.43467,-0.917575 -0.46022,-1.064183 -0.46022,-2.640739 0,-1.6378405 0.0102,-1.6898581 0.54224,-2.7663763 0.66564,-1.3468403 1.84395,-2.4955867 3.25139,-3.1698211 2.29256,-1.0982538 5.20107,-0.5468839 7.22816,1.3702531 1.36303,1.2890938 1.8494,2.7397849 1.74199,5.1957533 -0.0782,1.787465 -0.5785,2.863742 -1.91045,4.109717 -1.41339,1.322157 -1.90883,1.508456 -4.18242,1.572699 -1.33991,0.03786 -2.0778,-0.0041 -2.49544,-0.141779 z m 4.49967,-5.245316 c -0.0468,-0.250306 -0.17316,-0.528166 -0.28077,-0.617468 -0.16287,-0.135176 -0.15013,-0.251615 0.0761,-0.695316 0.31741,-0.622579 0.36077,-2.0042584 0.0747,-2.3807687 -0.32001,-0.4211944 -0.96555,-0.5720256 -2.80135,-0.6545365 l -1.77011,-0.079558 0.0143,2.007878 c 0.008,1.1043332 0.0589,2.3655122 0.11345,2.8026202 l 0.0992,0.794742 0.11369,-0.830866 0.1137,-0.830867 h 0.61765 c 0.3397,0 1.20804,0.04191 1.92964,0.09313 l 1.312,0.09313 0.0906,0.737739 c 0.0498,0.405756 0.13591,0.932812 0.19131,1.171234 0.0849,0.365435 0.10782,0.308718 0.14591,-0.361246 0.0248,-0.437108 0.007,-0.999538 -0.04,-1.249843 z"
       id="path3809"
       inkscape:connector-curvature="0"
       transform="translate(-0.43349592,-51.007999)" />
    <path
       style="fill:#ffffff;stroke-width:0.14449859"
       d="m 245.6423,17.481198 c -1.32789,-0.437877 -2.88774,-1.888582 -3.69377,-3.435325 -0.46895,-0.89988 -0.48018,-0.96357 -0.48093,-2.727627 l -7.7e-4,-1.8062322 0.5608,-1.0495751 c 0.69452,-1.2998562 1.89602,-2.4474874 3.23283,-3.0878841 2.29256,-1.0982538 5.20107,-0.5468839 7.22816,1.3702531 1.37965,1.304819 1.85771,2.7555981 1.73663,5.2701783 -0.0604,1.254421 -0.12254,1.517055 -0.5475,2.314375 -0.55936,1.049464 -1.95974,2.42765 -2.95755,2.910683 -0.57725,0.27944 -0.96744,0.337299 -2.58246,0.382933 -1.33991,0.03786 -2.0778,-0.0041 -2.49544,-0.141779 z m 4.49999,-5.24493 c -0.047,-0.250518 -0.1784,-0.532628 -0.292,-0.626912 -0.17744,-0.147261 -0.16672,-0.245759 0.0761,-0.698748 0.40433,-0.754395 0.38385,-1.9156596 -0.0425,-2.4087435 -0.37524,-0.433988 -1.4503,-0.6438192 -3.32347,-0.648679 l -1.11986,-0.00291 v 1.5172351 c 0,0.9151574 0.0573,1.5172344 0.1445,1.5172344 0.0858,0 0.14449,-0.534901 0.14449,-1.3157061 v -1.315707 l 1.71886,0.051344 c 1.92205,0.057414 2.24709,0.2003902 2.40823,1.0593131 0.11033,0.5881068 -0.23573,1.438531 -0.68301,1.678454 -0.18555,0.09953 -1.08514,0.218555 -1.99909,0.264504 -1.20029,0.06034 -1.65772,0.1337 -1.64728,0.264167 0.008,0.09934 0.0319,0.522001 0.0533,0.93924 l 0.0388,0.758618 0.13835,-0.758618 0.13836,-0.758617 0.74759,8.67e-4 c 0.41118,4.77e-4 1.28054,0.04236 1.93191,0.09307 l 1.18432,0.0922 0.0919,0.810051 c 0.0505,0.445527 0.13533,0.940099 0.18842,1.099047 0.12916,0.386632 0.21695,-0.998482 0.10209,-1.610703 z"
       id="path3811"
       inkscape:connector-curvature="0"
       transform="translate(-0.43349592,-51.007999)" />
    <path
       style="fill:#ffffff;stroke-width:0.14449859"
       d="m 245.49885,17.421467 c -1.30992,-0.469315 -2.75158,-1.841783 -3.55223,-3.381747 -0.46347,-0.891444 -0.4759,-0.962207 -0.47782,-2.721474 -0.002,-1.7209654 0.0185,-1.8469255 0.43152,-2.6682502 0.66449,-1.3213515 1.92153,-2.5766085 3.22519,-3.2206152 1.06608,-0.5266448 1.13907,-0.5413214 2.69226,-0.5413214 1.54461,0 1.63307,0.017474 2.72284,0.5378306 1.46923,0.7015557 2.66873,1.8333856 3.22604,3.0440576 0.39185,0.8512187 0.41326,1.0020316 0.41462,2.9205476 l 10e-4,2.02298 -0.49216,0.907634 c -0.57703,1.064143 -1.98022,2.439626 -2.98497,2.926015 -0.59463,0.287855 -0.96635,0.343592 -2.58245,0.387222 -1.55384,0.04195 -2.01813,0.0043 -2.62427,-0.212879 z m 4.64655,-5.024143 c -0.0465,-0.247982 -0.18612,-0.575965 -0.31021,-0.728852 -0.12409,-0.152887 -0.18445,-0.196696 -0.13413,-0.09735 0.0662,0.130624 -0.10087,0.187833 -0.60341,0.206668 l -0.69489,0.02605 0.67865,0.05381 0.67866,0.05381 0.0878,0.678766 c 0.0483,0.373321 0.13066,0.841327 0.18299,1.040012 0.0821,0.311606 0.10227,0.282696 0.1471,-0.210389 0.0286,-0.3144 0.0139,-0.774529 -0.0326,-1.02251 z m -4.32506,-0.673704 c -0.0346,-0.142255 0.0399,-0.269313 0.17769,-0.303199 0.15388,-0.03783 0.13569,-0.05334 -0.0517,-0.04413 -0.25524,0.01254 -0.29183,0.12389 -0.31325,0.953442 -0.024,0.927652 -0.0226,0.931218 0.11131,0.288997 0.0746,-0.357634 0.10876,-0.760435 0.076,-0.895113 z m 2.04314,-0.364123 c -0.21713,-0.03297 -0.60728,-0.03363 -0.86699,-0.0015 -0.25972,0.03216 -0.0821,0.05914 0.39478,0.05995 0.47684,8.09e-4 0.68934,-0.0255 0.47221,-0.05847 z m 1.39152,-0.205322 c 0.19805,-0.09024 0.39899,-0.26541 0.44652,-0.389269 0.0683,-0.178088 0.0259,-0.170429 -0.20289,0.03661 -0.15911,0.143996 -0.50329,0.312511 -0.76483,0.374478 -0.33006,0.0782 -0.37816,0.117193 -0.15722,0.127459 0.17508,0.0081 0.48037,-0.05904 0.67842,-0.14928 z m -3.52547,-1.5851315 v -1.315707 l 1.72999,0.051344 c 1.57118,0.046631 1.7602,0.081576 2.0591,0.3806779 0.26087,0.2610329 0.32773,0.4857905 0.32239,1.0837393 -0.004,0.4149233 0.0191,0.6311753 0.0508,0.4805603 0.046,-0.219253 0.0829,-0.233656 0.18514,-0.07225 0.18972,0.299612 0.16658,-1.1256678 -0.024,-1.4818694 -0.2607,-0.4871244 -1.06779,-0.7111615 -2.89245,-0.8029045 l -1.71987,-0.086474 v 1.5392951 c 0,0.9298648 0.0572,1.5392948 0.1445,1.5392948 0.0858,0 0.14449,-0.534901 0.14449,-1.3157066 z"
       id="path3813"
       inkscape:connector-curvature="0"
       transform="translate(-0.43349592,-51.007999)" />
    <path
       style="fill:#ffffff;stroke-width:0.14449859"
       d="m 245.56803,17.485854 c -1.3328,-0.499632 -2.92141,-2.015334 -3.66771,-3.499358 -0.41257,-0.820402 -0.43349,-0.949217 -0.43349,-2.66825 0,-1.6948831 0.0255,-1.8581926 0.41354,-2.6490984 0.63382,-1.2918413 1.93787,-2.5939283 3.24463,-3.239767 1.06572,-0.5267064 1.13841,-0.5413214 2.69227,-0.5413214 1.54519,0 1.63351,0.017442 2.72334,0.5378306 1.46759,0.7007718 2.66806,1.8330118 3.22748,3.0440576 0.394,0.8529455 0.41461,0.9981397 0.41461,2.9205476 v 2.02298 l -0.49216,0.907634 c -0.58275,1.074699 -2.08467,2.541156 -3.03844,2.966686 -0.85145,0.379884 -4.24626,0.512134 -5.08407,0.198059 z m 4.43158,-5.522012 c -0.1673,-0.400422 -0.26994,-0.498845 -0.40475,-0.388126 -0.0993,0.08158 -0.34317,0.178222 -0.54186,0.214751 -0.27057,0.04974 -0.22745,0.07136 0.17177,0.0861 0.52276,0.0193 0.53481,0.03289 0.62627,0.706047 0.15242,1.121885 0.2801,1.351106 0.32921,0.591028 0.0246,-0.380248 -0.0541,-0.906844 -0.18064,-1.209795 z m -4.13235,-0.09231 c 0.0921,-0.423094 0.0752,-0.515015 -0.0834,-0.454161 -0.13975,0.05363 -0.19298,0.318572 -0.17915,0.891703 0.0108,0.448474 0.0484,0.652846 0.0834,0.454161 0.035,-0.198686 0.11566,-0.599952 0.17915,-0.891703 z m 1.85081,-0.508066 c -0.13815,-0.03617 -0.39825,-0.03748 -0.57799,-0.0029 -0.17974,0.03456 -0.0667,0.06415 0.25119,0.06576 0.3179,0.0016 0.46496,-0.02668 0.3268,-0.06284 z m 1.73628,-0.270159 c 0.17663,-0.123717 0.32114,-0.296356 0.32114,-0.383641 0,-0.08729 -0.12306,-0.04733 -0.27347,0.08879 -0.1504,0.136118 -0.45927,0.303168 -0.68636,0.371222 -0.40522,0.121432 -0.40611,0.123965 -0.0477,0.136154 0.20087,0.0068 0.50973,-0.0888 0.68637,-0.212522 z m -3.74182,-0.533676 c -0.0154,-0.178817 -0.0178,-0.7708846 -0.005,-1.3157063 l 0.0225,-0.9905852 1.72999,0.051344 c 1.57078,0.046619 1.76027,0.081633 2.0591,0.3804799 0.2415,0.2415053 0.32912,0.4962922 0.32912,0.956968 0,0.4429006 0.0532,0.6074166 0.18063,0.5585206 0.21632,-0.08301 0.23732,-0.8819275 0.037,-1.4087109 C 249.85309,8.2322716 249.15402,8.0167612 247.1916,7.905856 L 245.441,7.806921 v 1.4425834 c 0,1.2759556 0.0541,1.6352476 0.2463,1.6352476 0.0295,0 0.0411,-0.146305 0.0257,-0.325122 z"
       id="path3815"
       inkscape:connector-curvature="0"
       transform="translate(-0.43349592,-51.007999)" />
    <path
       style="fill:#ffffff;stroke-width:0.14449859"
       d="m 245.56803,17.485854 c -0.28752,-0.107783 -0.75303,-0.338286 -1.03448,-0.512229 -0.80006,-0.494465 -2.1979,-2.078331 -2.65318,-3.006281 -0.38805,-0.790905 -0.41354,-0.954215 -0.41354,-2.649098 0,-1.6957371 0.0253,-1.857839 0.41423,-2.6498339 0.63476,-1.2927369 1.93721,-2.5932073 3.24394,-3.2390315 1.06707,-0.5273753 1.13672,-0.5413214 2.70316,-0.5413214 1.59672,0 1.61632,0.00419 2.82522,0.603753 1.49853,0.7432073 2.4711,1.6709026 3.07852,2.9364622 0.43854,0.9137012 0.4508,0.9942491 0.4508,2.9622206 0,1.851864 -0.0299,2.084093 -0.35305,2.745473 -0.47195,0.965784 -2.24289,2.73518 -3.13635,3.133606 -0.58067,0.258942 -1.03603,0.321178 -2.65179,0.362437 -1.39535,0.03563 -2.09956,-0.006 -2.47348,-0.146157 z m 4.49927,-5.290189 c -0.16231,-0.602776 -0.24385,-0.644389 -0.8698,-0.443923 -0.34509,0.110518 -0.34064,0.116335 0.0995,0.130095 0.4377,0.01368 0.46537,0.04877 0.55266,0.700772 0.12757,0.952879 0.26117,1.224873 0.32451,0.660671 0.0284,-0.252556 -0.0197,-0.723983 -0.10689,-1.047615 z m -4.20767,-0.416326 c 0.008,-0.188398 -0.0485,-0.294772 -0.1301,-0.244345 -0.0795,0.04912 -0.13801,0.361821 -0.13009,0.694896 0.0123,0.517226 0.0313,0.552879 0.13009,0.244345 0.0636,-0.198686 0.12218,-0.511389 0.1301,-0.694896 z m 1.78451,-0.412293 c -0.0993,-0.04009 -0.2619,-0.04009 -0.36125,0 -0.0993,0.04009 -0.0181,0.07288 0.18063,0.07288 0.19868,0 0.27996,-0.0328 0.18062,-0.07288 z m 1.81021,-0.273742 c 0.17663,-0.123717 0.32114,-0.296356 0.32114,-0.383641 0,-0.08784 -0.11422,-0.05533 -0.25584,0.07283 -0.14071,0.127344 -0.41707,0.295861 -0.61412,0.374482 -0.31154,0.124303 -0.32006,0.144142 -0.0653,0.152107 0.16113,0.005 0.43748,-0.09206 0.61412,-0.215783 z m -3.85011,-2.6932815 c -0.1148,-0.3982671 -0.1398,-0.2696703 -0.15067,0.7750514 -0.007,0.6888992 0.0357,1.3716551 0.0953,1.5172351 0.16508,0.403191 0.21664,-1.7326851 0.0553,-2.2922865 z m 4.60262,1.2203652 c -0.001,-0.2980283 -0.0843,-0.7044306 -0.18464,-0.9031161 -0.23908,-0.4732308 -1.0923,-0.7542072 -1.88349,-0.62026 l -0.60296,0.1020811 0.86162,0.1132362 c 1.02845,0.1351611 1.36928,0.4231382 1.48029,1.2507291 0.10021,0.747183 0.33205,0.787559 0.32918,0.05733 z M 246.4159,8.1841692 c -0.13908,-0.036345 -0.36666,-0.036345 -0.50574,0 -0.13908,0.036346 -0.0253,0.066083 0.25287,0.066083 0.27816,0 0.39195,-0.029737 0.25287,-0.066083 z"
       id="path3817"
       inkscape:connector-curvature="0"
       transform="translate(-0.43349592,-51.007999)" />
    <path
       style="fill:#ffffff;stroke-width:0.14449859"
       d="m 245.56803,17.485854 c -0.28752,-0.107783 -0.75303,-0.338286 -1.03448,-0.512229 -0.79997,-0.494407 -2.19643,-2.076738 -2.65249,-3.005545 -0.38889,-0.791995 -0.41423,-0.954097 -0.41423,-2.649834 0,-1.6957371 0.0253,-1.857839 0.41423,-2.6498339 0.63476,-1.2927369 1.93721,-2.5932073 3.24394,-3.2390315 1.06707,-0.5273753 1.13672,-0.5413214 2.70316,-0.5413214 1.59672,0 1.61632,0.00419 2.82522,0.603753 1.49853,0.7432073 2.4711,1.6709026 3.07852,2.9364622 0.43854,0.9137012 0.4508,0.9942491 0.4508,2.9622206 0,1.848477 -0.0303,2.085303 -0.35146,2.745473 -0.4683,0.962654 -2.24231,2.734209 -3.13794,3.133606 -0.58067,0.258942 -1.03603,0.321178 -2.65179,0.362437 -1.39535,0.03563 -2.09956,-0.006 -2.47348,-0.146157 z m 4.57668,-4.936587 c -0.11533,-0.769112 -0.34752,-0.998098 -0.82021,-0.808919 l -0.34375,0.137574 0.38052,0.0092 c 0.40012,0.0096 0.55284,0.292897 0.55675,1.03269 0.002,0.404926 0.1792,0.684524 0.26689,0.421453 0.0298,-0.08941 0.0117,-0.44579 -0.0402,-0.791958 z m -4.28508,-0.842178 c 0.008,-0.14377 -0.0506,-0.221213 -0.1301,-0.172095 -0.0795,0.04912 -0.13801,0.329309 -0.13009,0.622647 0.0129,0.479067 0.0262,0.49658 0.13009,0.172095 0.0636,-0.198685 0.12218,-0.478877 0.1301,-0.622647 z m 3.73793,-0.710048 c 0.33877,-0.281156 0.0929,-0.256119 -0.48217,0.04911 -0.50878,0.270026 -0.52293,0.291227 -0.13545,0.202946 0.23798,-0.05422 0.51591,-0.167643 0.61762,-0.252053 z m -3.9275,-0.797927 c -0.15541,-0.155407 -0.23791,0.06224 -0.12882,0.339833 0.10234,0.260395 0.11006,0.260846 0.16067,0.0094 0.0292,-0.1453 0.0149,-0.302443 -0.0318,-0.349205 z m 4.53893,-0.5358026 c 0,-0.2744202 -0.0738,-0.6610392 -0.16412,-0.8591534 -0.26699,-0.5859757 -1.7264,-1.0263738 -2.26646,-0.6839401 -0.12134,0.076933 0.11116,0.1521856 0.63828,0.2065888 0.99736,0.102937 1.34887,0.4003753 1.46099,1.2362513 0.0973,0.725213 0.33131,0.796033 0.33131,0.1002534 z m -3.86534,-1.4752342 c -0.0993,-0.040086 -0.2619,-0.040086 -0.36124,0 -0.0993,0.040086 -0.0181,0.072883 0.18062,0.072883 0.19869,0 0.27997,-0.032797 0.18062,-0.072883 z"
       id="path3819"
       inkscape:connector-curvature="0"
       transform="translate(-0.43349592,-51.007999)" />
    <path
       style="fill:#ffffff;stroke-width:0.14449859"
       d="m 245.56803,17.484819 c -0.28752,-0.107213 -0.75303,-0.337251 -1.03448,-0.511194 -0.79997,-0.494407 -2.19643,-2.076738 -2.65249,-3.005545 -0.38889,-0.791995 -0.41423,-0.954097 -0.41423,-2.649834 0,-1.6957371 0.0253,-1.857839 0.41423,-2.6498339 0.63476,-1.2927369 1.93721,-2.5932073 3.24394,-3.2390315 1.06707,-0.5273753 1.13672,-0.5413214 2.70316,-0.5413214 1.59685,0 1.61624,0.00414 2.82775,0.6044727 1.51052,0.7484886 2.48155,1.6738071 3.08079,2.9357425 0.43237,0.9105406 0.446,1.0010566 0.446,2.9622206 0,1.848477 -0.0303,2.085303 -0.35146,2.745473 -0.46592,0.957752 -2.24127,2.732728 -3.13794,3.137265 -0.5871,0.264871 -1.01815,0.323617 -2.65179,0.361402 -1.3803,0.03193 -2.10359,-0.01188 -2.47348,-0.149816 z m 4.57393,-4.829961 c -0.12606,-0.866551 -0.33757,-1.106044 -0.81008,-0.917238 l -0.35113,0.140302 0.38052,0.0092 c 0.40384,0.0097 0.55296,0.292761 0.55675,1.056773 10e-4,0.218555 0.0744,0.397372 0.16288,0.397372 0.10964,0 0.12909,-0.218688 0.0611,-0.686369 z m -4.27808,-0.947769 c 0.006,-0.14377 -0.0549,-0.221213 -0.13435,-0.172095 -0.0795,0.04912 -0.13992,0.296797 -0.13434,0.550397 0.009,0.388674 0.0297,0.415703 0.13434,0.172096 0.0683,-0.158949 0.12876,-0.406628 0.13435,-0.550398 z m 3.4853,-0.609302 c 0.23447,-0.121252 0.42631,-0.25297 0.42631,-0.292707 0,-0.06472 -0.85075,0.326244 -0.99944,0.459293 -0.14611,0.130734 0.18336,0.03497 0.57313,-0.166586 z m -3.61965,-0.718782 c 0,-0.119211 -0.063,-0.216748 -0.13996,-0.216748 -0.077,0 -0.10253,0.09754 -0.0568,0.216748 0.0457,0.119212 0.10873,0.216748 0.13997,0.216748 0.0312,0 0.0568,-0.09754 0.0568,-0.216748 z m 4.43517,-0.9751393 c -0.0549,-0.4096405 -0.2046,-0.7190609 -0.44981,-0.9299809 -0.40869,-0.3515363 -1.61358,-0.5967028 -1.83658,-0.3736999 -0.0923,0.092305 0.11925,0.1723576 0.60867,0.2303229 0.90735,0.1074623 1.26415,0.4002628 1.38142,1.1336346 0.12329,0.7709946 0.40024,0.7146536 0.2963,-0.060277 z"
       id="path3821"
       inkscape:connector-curvature="0"
       transform="translate(-0.43349592,-51.007999)" />
    <path
       style="fill:#ffffff;stroke-width:0.14449859"
       d="m 245.56803,17.484819 c -0.28752,-0.107213 -0.75303,-0.337251 -1.03448,-0.511194 -0.79997,-0.494407 -2.19643,-2.076738 -2.65249,-3.005545 -0.39147,-0.797249 -0.41423,-0.946816 -0.41423,-2.722083 0,-1.8582399 0.005,-1.8881346 0.48585,-2.774281 0.65181,-1.2017907 2.0561,-2.5290839 3.29826,-3.1174287 0.92472,-0.4379903 1.08127,-0.4662281 2.58472,-0.4662281 1.58805,0 1.60977,0.00466 2.82025,0.6044727 1.51052,0.7484886 2.48155,1.6738071 3.08079,2.9357425 0.43482,0.9156897 0.446,0.9919189 0.446,3.0400916 v 2.100851 l -0.50574,0.839792 c -0.62468,1.037277 -2.14298,2.484098 -3.02486,2.882445 -0.53946,0.243679 -1.01578,0.306294 -2.61059,0.343181 -1.3803,0.03193 -2.10359,-0.01188 -2.47348,-0.149816 z m 4.58258,-4.739685 c -0.141,-0.88177 -0.31039,-1.12904 -0.69835,-1.019447 -0.32446,0.09166 -0.32459,0.09275 -0.0166,0.139585 0.32341,0.04919 0.479,0.397079 0.48238,1.078583 0.001,0.218554 0.0753,0.397371 0.16494,0.397371 0.11002,0 0.132,-0.19365 0.0676,-0.596092 z m -4.28673,-0.965795 c 0.006,-0.104034 -0.0549,-0.148964 -0.13435,-0.09985 -0.0795,0.04912 -0.13992,0.264285 -0.13434,0.478149 0.009,0.347204 0.0235,0.357896 0.13434,0.09985 0.0683,-0.158949 0.12876,-0.374115 0.13435,-0.478149 z m 3.47812,-0.677841 c 0.19868,-0.113579 0.29622,-0.206507 0.21675,-0.206507 -0.0795,0 -0.30706,0.09293 -0.50575,0.206507 -0.19868,0.113579 -0.29622,0.206507 -0.21675,0.206507 0.0795,0 0.30706,-0.09293 0.50575,-0.206507 z m -3.65825,-0.821836 c -0.0461,-0.115271 -0.0804,-0.08103 -0.0873,0.0873 -0.006,0.152325 0.0279,0.23767 0.0759,0.189654 0.048,-0.04802 0.0532,-0.172646 0.0114,-0.276956 z m 4.48095,-0.8757963 c -0.0545,-0.4064244 -0.20462,-0.7190773 -0.44417,-0.9251293 -0.40826,-0.3511726 -1.4877,-0.5885769 -1.70196,-0.3743177 -0.09,0.089967 0.10624,0.167448 0.55096,0.2175747 0.81229,0.091557 1.35046,0.5977973 1.35046,1.2703275 0,0.2339909 0.0736,0.4254381 0.16353,0.4254381 0.10896,0 0.13605,-0.2048395 0.0812,-0.6138933 z"
       id="path3823"
       inkscape:connector-curvature="0"
       transform="translate(-0.43349592,-51.007999)" />
    <path
       style="fill:#ffffff;stroke-width:0.14449859"
       d="m 245.05615,17.249201 c -1.04747,-0.529059 -2.50412,-2.001358 -3.15583,-3.189748 -0.42122,-0.768089 -0.43349,-0.845722 -0.43349,-2.741207 0,-1.9402467 0.003,-1.9555452 0.48585,-2.84653 0.61318,-1.1305641 1.99415,-2.4651048 3.20405,-3.0963399 0.90385,-0.4715619 0.98813,-0.4873169 2.60668,-0.4873169 h 1.67263 l 1.21734,0.603634 c 1.47338,0.7305898 2.41801,1.6029316 3.0533,2.8196385 l 0.47602,0.9116849 v 2.1674784 c 0,1.9777 -0.0288,2.221327 -0.32851,2.782479 -0.53036,0.992901 -2.12345,2.577375 -3.04497,3.028507 -0.75289,0.368581 -0.97568,0.403775 -2.83996,0.448633 -2.01951,0.04859 -2.02451,0.04791 -2.91311,-0.400913 z m 5.08897,-4.449845 c -0.17123,-0.966127 -0.22181,-1.0486 -0.63224,-1.030852 -0.30347,0.01312 -0.32489,0.03244 -0.0986,0.08896 0.37761,0.09434 0.50083,0.301261 0.50353,0.845555 0.002,0.40832 0.0954,0.638202 0.25913,0.638202 0.0353,0 0.021,-0.243841 -0.0318,-0.54187 z m -4.28124,-1.092267 c 0.006,-0.0643 -0.0549,-0.07671 -0.13435,-0.0276 -0.0795,0.04912 -0.13992,0.231773 -0.13434,0.405899 0.01,0.305234 0.0146,0.306225 0.13434,0.0276 0.0683,-0.158948 0.12876,-0.341603 0.13435,-0.405899 z m 3.54935,-0.676185 c 0.0506,-0.08191 -0.007,-0.106135 -0.13598,-0.05679 -0.25033,0.09606 -0.29613,0.199633 -0.0883,0.199633 0.0748,0 0.1757,-0.06428 0.22426,-0.142843 z m 0.7351,-1.6234891 c -0.12465,-0.7795345 -0.38157,-1.0551446 -1.16821,-1.2532244 -0.76348,-0.1922448 -0.93861,-0.1985774 -0.93861,-0.033939 0,0.06901 0.27625,0.1625258 0.6139,0.2078129 0.73201,0.098183 1.26458,0.6306214 1.26458,1.2642567 0,0.2339909 0.0733,0.4254379 0.16297,0.4254379 0.11064,0 0.13163,-0.1959774 0.0654,-0.6103439 z"
       id="path3825"
       inkscape:connector-curvature="0"
       transform="translate(-0.43349592,-51.007999)" />
    <path
       style="fill:#ffffff;stroke-width:0.14449859"
       d="m 245.05615,17.250157 c -1.04755,-0.530223 -2.50482,-2.003597 -3.15583,-3.190704 -0.42122,-0.768089 -0.43349,-0.845722 -0.43349,-2.741207 0,-1.9402467 0.003,-1.9555452 0.48585,-2.84653 0.61318,-1.1305641 1.99415,-2.4651048 3.20405,-3.0963399 0.90941,-0.4744585 0.9798,-0.4873169 2.66803,-0.4873169 h 1.73399 l 1.21133,0.6402209 c 1.4404,0.761285 2.38728,1.6625378 2.97913,2.8355608 0.42421,0.8407714 0.43349,0.905605 0.43349,3.0266541 0,2.010193 -0.0251,2.214665 -0.34646,2.817723 -0.48262,0.905759 -2.04123,2.478182 -2.94412,2.970207 -0.71302,0.388554 -0.87288,0.414741 -2.85061,0.466957 l -2.09523,0.05532 z m 5.08128,-4.52305 c -0.17684,-0.878648 -0.23235,-0.97553 -0.5523,-0.963958 -0.2152,0.0078 -0.24653,0.03762 -0.0986,0.09392 0.31854,0.12126 0.4288,0.343684 0.43128,0.870042 0.001,0.258291 0.0724,0.469621 0.15819,0.469621 0.099,0 0.12148,-0.171454 0.0615,-0.469621 z m -4.45368,-0.713462 c -0.0461,-0.115271 -0.0804,-0.08103 -0.0873,0.0873 -0.006,0.152325 0.0279,0.23767 0.0759,0.189654 0.048,-0.04802 0.0532,-0.172646 0.0114,-0.276956 z m 4.37953,-2.9388091 c -0.0987,-0.2991912 -0.32739,-0.5898428 -0.55769,-0.7089359 -0.52926,-0.2736933 -1.46408,-0.4408082 -1.46408,-0.2617301 0,0.077855 0.27625,0.1786072 0.6139,0.2238943 0.69026,0.092584 1.26458,0.6230049 1.26458,1.1679242 0,0.1810081 0.0488,0.3782887 0.10838,0.4384012 0.18798,0.1895764 0.20914,-0.3316144 0.0349,-0.8595537 z"
       id="path3827"
       inkscape:connector-curvature="0"
       transform="translate(-0.43349592,-51.007999)" />
    <path
       style="fill:#ffffff;stroke-width:0.14449859"
       d="m 245.07929,17.257582 c -1.26414,-0.6461 -2.53677,-1.945566 -3.26942,-3.338362 -0.3081,-0.585701 -0.34144,-0.829527 -0.33589,-2.456475 0.003,-0.993428 0.0282,-2.0338179 0.0551,-2.3119777 0.059,-0.6095869 0.40603,-1.3406952 0.58416,-1.2306054 0.0706,0.043632 0.17541,0.0032 0.23292,-0.089851 0.0691,-0.1117605 0.0416,-0.1302556 -0.081,-0.054493 -0.1237,0.076452 -0.16326,0.047763 -0.11866,-0.086048 0.0368,-0.1104053 0.13736,-0.2007368 0.22345,-0.2007368 0.0861,0 0.21073,-0.059193 0.27696,-0.1315407 0.07,-0.076425 0.0447,-0.087988 -0.0602,-0.027597 -0.28629,0.1647554 -0.20979,-0.1309197 0.10837,-0.4188569 0.15895,-0.1438463 0.28996,-0.2026926 0.29113,-0.1307694 0.001,0.071923 0.0846,-0.031792 0.18535,-0.230477 0.10077,-0.1986856 0.28315,-0.3623309 0.40528,-0.3636563 0.12213,-0.00133 0.3801,-0.1058696 0.57326,-0.2323203 1.42933,-0.9356648 1.86925,-1.0656683 3.60628,-1.0657136 1.88463,-4.92e-5 2.28518,0.121204 3.92561,1.1883582 1.1077,0.7205916 1.88431,1.6857018 2.29366,2.8503673 0.21819,0.6207824 0.27932,1.1857646 0.27932,2.5814756 0,1.695173 -0.0222,1.831119 -0.4324,2.652067 -0.50161,1.003816 -2.04762,2.575982 -3.03556,3.086918 -0.57187,0.295753 -0.9028,0.343347 -2.74548,0.39485 l -2.09523,0.05856 z m 5.02832,-4.602724 c -0.0874,-0.568831 -0.27414,-0.903116 -0.50463,-0.903116 -0.0754,0 -0.0349,0.102181 0.0899,0.227069 0.12489,0.124888 0.22707,0.45001 0.22707,0.722493 0,0.272483 0.0609,0.495424 0.13542,0.495424 0.0749,0 0.0983,-0.241993 0.0522,-0.54187 z m 0.10057,-2.8899717 c -0.004,-0.5142476 -0.35509,-1.2185113 -0.69229,-1.3879925 -0.50468,-0.2536617 -1.32988,-0.4103215 -1.32988,-0.2524721 0,0.06733 0.25539,0.1632565 0.56753,0.2131703 0.63931,0.1022293 1.16645,0.6417811 1.16645,1.1939087 0,0.1879677 0.065,0.3417595 0.1445,0.3417595 0.0795,0 0.14414,-0.048768 0.14369,-0.1083739 z"
       id="path3829"
       inkscape:connector-curvature="0"
       transform="translate(-0.43349592,-51.007999)" />
    <rect
       style="fill:#ffffff"
       id="rect3831"
       width="14.160861"
       height="17.773325"
       x="240.15663"
       y="-48.630207" />
  </g>
</svg>
