<?xml version="1.0" encoding="UTF-8" standalone="no"?>
<!-- Created with Inkscape (http://www.inkscape.org/) -->

<svg
   xmlns:dc="http://purl.org/dc/elements/1.1/"
   xmlns:cc="http://creativecommons.org/ns#"
   xmlns:rdf="http://www.w3.org/1999/02/22-rdf-syntax-ns#"
   xmlns:svg="http://www.w3.org/2000/svg"
   xmlns="http://www.w3.org/2000/svg"
   xmlns:sodipodi="http://sodipodi.sourceforge.net/DTD/sodipodi-0.dtd"
   xmlns:inkscape="http://www.inkscape.org/namespaces/inkscape"
   version="1.1"
   id="svg3713"
   width="255.03999"
   height="32"
   viewBox="0 0 255.03999 32"
   sodipodi:docname="Strise_Logo.svg"
   inkscape:version="0.92.3 (2405546, 2018-03-11)">
  <metadata
     id="metadata3719">
    <rdf:RDF>
      <cc:Work
         rdf:about="">
        <dc:format>image/svg+xml</dc:format>
        <dc:type
           rdf:resource="http://purl.org/dc/dcmitype/StillImage" />
        <dc:title></dc:title>
      </cc:Work>
    </rdf:RDF>
  </metadata>
  <defs
     id="defs3717" />
  <sodipodi:namedview
     pagecolor="#ffffff"
     bordercolor="#666666"
     borderopacity="1"
     objecttolerance="10"
     gridtolerance="10"
     guidetolerance="10"
     inkscape:pageopacity="0"
     inkscape:pageshadow="2"
     inkscape:window-width="1920"
     inkscape:window-height="1017"
     id="namedview3715"
     showgrid="false"
     inkscape:zoom="6.9204832"
     inkscape:cx="126.40152"
     inkscape:cy="16"
     inkscape:window-x="-8"
     inkscape:window-y="-8"
     inkscape:window-maximized="1"
     inkscape:current-layer="g3741"
     inkscape:measure-start="244.512,15.6602"
     inkscape:measure-end="253.902,17.957" />
  <g
     id="g3741"
     transform="translate(0.43349592,51.007999)">
    <path
       id="path3743"
       transform="translate(-0.43349592,-51.007999)"
       style="fill:#333333;fill-opacity:1;stroke-width:0.31999999"
       d="m 153.30859,-0.12890625 v 4.00000005 4 h -2.24023 -2.24024 v 1.9199218 1.9199224 h 2.24024 2.24023 v 7.611328 c 0,7.257742 0.0323,7.679694 0.71875,9.041015 0.46859,0.929241 1.11093,1.622194 1.83985,1.986328 0.89694,0.448072 1.96577,0.560163 5.36133,0.560547 h 4.24023 V 28.830078 26.75 h -2.99023 c -4.28399,0 -4.08317,0.407769 -3.97657,-8.03125 l 0.0859,-6.847656 2.64063,-0.09375 2.63867,-0.0918 v -1.9082032 -1.90625 h -2.71875 -2.72071 v -4 -4.00000005 h -2.56054 z m 31.67969,0 V 2.75 5.6308594 h 2.56055 2.55859 V 2.75 -0.12890625 h -2.55859 z M 136.71875,7.25 c -2.34979,0.080678 -4.59434,0.7349981 -6.01953,1.9863281 -3.49175,3.0657939 -2.98454,8.0055039 1.08008,10.5175779 0.57332,0.354331 2.71226,1.057599 4.7539,1.5625 4.14128,1.024144 5.14651,1.534261 5.45508,2.763672 1.01899,4.060008 -6.79053,5.05691 -8.46094,1.080078 l -0.53906,-1.283203 -2.60742,-0.0039 -2.60547,-0.002 0.24609,1.089844 c 0.66611,2.95342 2.94856,5.298587 5.98243,6.148437 0.93659,0.262357 2.7462,0.398846 4.5957,0.347656 2.59417,-0.0718 3.32506,-0.218458 4.89453,-0.986328 2.6598,-1.301321 3.57422,-2.78344 3.57422,-5.800781 0,-1.927431 -0.13023,-2.483559 -0.83398,-3.546875 -1.09004,-1.646984 -3.32509,-2.838152 -6.88086,-3.666016 -3.8955,-0.906961 -3.84867,-0.8889 -4.92774,-1.796875 -2.49472,-2.099173 0.23119,-5.158569 3.9707,-4.457031 1.46057,0.274003 2.63193,1.250179 3.11914,2.597656 l 0.4004,1.109375 h 2.49609 2.49609 l -0.008,-0.878906 c -0.01,-1.224552 -1.01543,-3.27531 -2.11133,-4.3027344 -1.853,-1.737351 -5.04915,-2.582244 -8.07031,-2.4785156 z m 66.41797,0.019531 c -0.33749,-0.00231 -0.68117,0.00496 -1.0332,0.023438 -4.90049,0.2572099 -7.78019,2.4495676 -8.0879,6.1601562 -0.36626,4.417095 2.06781,6.624558 8.97657,8.136719 3.42385,0.749399 4.29782,1.276067 4.57617,2.759765 0.42187,2.248742 -1.60055,3.62257 -4.7793,3.246094 -1.94875,-0.230801 -3.0363,-0.952312 -3.82812,-2.544922 L 198.375,23.871094 h -2.52539 -2.52539 l 0.1914,1.039062 c 0.4996,2.704681 2.64198,5.00555 5.61719,6.033203 2.0994,0.725143 6.2381,0.792896 8.4375,0.136719 2.89808,-0.864619 5.23435,-3.576751 5.24805,-6.089844 0.0141,-2.575092 -1.51993,-5.061365 -3.86133,-6.255859 -0.66649,-0.34002 -2.79349,-0.988122 -4.72656,-1.441406 -4.2111,-0.98746 -5.25776,-1.716582 -5.10156,-3.552735 0.14373,-1.68963 1.36397,-2.509765 3.73632,-2.509765 2.24542,0 3.43111,0.691172 4.16016,2.427734 l 0.52344,1.246094 2.51562,0.002 2.51563,0.0039 -0.22266,-1.185547 c -0.76318,-4.0681005 -4.15832,-6.4203817 -9.2207,-6.4550778 z m 22.62305,0.035156 c -0.30818,0.00175 -0.60781,0.018451 -0.89844,0.048828 -5.57748,0.582962 -9.33062,4.7907304 -9.71094,10.8867184 -0.38819,6.222213 2.42405,11.044889 7.39063,12.671875 4.19896,1.375525 9.59591,0.0033 11.77343,-2.992187 0.80965,-1.113792 1.87305,-3.16374 1.87305,-3.609375 0,-0.06651 -1.11452,-0.118288 -2.47852,-0.117188 -2.41492,0.002 -2.4944,0.02679 -3.02148,0.953125 -1.15412,2.02835 -4.24916,2.859052 -6.75391,1.8125 -1.81757,-0.759428 -3.36951,-2.852062 -3.89062,-5.248046 l -0.22656,-1.041016 h 8.18554 8.18555 v -2.341797 c 0,-4.089906 -1.56386,-7.581367 -4.16797,-9.3046875 -1.60312,-1.0608946 -4.10254,-1.7310017 -6.25976,-1.71875 z m -43.33204,0.2460937 -1.83984,0.00586 c -2.96126,0.011311 -5.58386,1.6173036 -6.46875,3.9589844 -0.52414,1.387036 -0.81792,0.720197 -0.69922,-1.5878906 l 0.10547,-2.0566406 h -2.58789 -2.58984 V 19.390625 30.910156 h 2.56054 2.56055 l 0.006,-6.958984 c 0.006,-6.08152 0.0815,-7.121795 0.59766,-8.240234 1.15879,-2.51076 2.71036,-3.361329 6.13671,-3.361329 h 2.21875 V 9.9511719 Z m 2.56055,0.3203126 V 19.390625 30.910156 h 2.56055 2.55859 V 19.390625 7.8710938 h -2.55859 z m 41.27149,3.5292972 c 0.83173,0.0071 1.60333,0.13799 2.11914,0.40625 1.63566,0.850663 3.00976,2.947023 3.00976,4.591797 0,0.346526 -1.11206,0.43164 -5.60156,0.43164 -5.42312,0 -5.59961,-0.02021 -5.59961,-0.652344 0,-1.072621 1.19405,-3.082472 2.29883,-3.86914 0.83029,-0.591225 2.38721,-0.920086 3.77344,-0.908203 z M 0.02734375,16.509766 V 18.75 20.990234 H 54.427734 108.82812 V 18.75 16.509766 H 54.427734 Z" />
    <path
       id="rect3835"
       transform="translate(-0.43349592,-51.007999)"
       style="fill:none"
       d="M 239.57812,3.6777344 V 8.359375 c 0.12454,-0.086544 0.27343,-0.1631199 0.47071,-0.2128906 0.42853,-0.1081146 0.74172,-0.401697 1.14648,-0.4882813 -0.15862,-0.1140206 -0.31708,-0.2311907 -0.42969,-0.3789062 -0.0426,-0.05584 0.0712,-0.1195785 0.10743,-0.1796875 0.46608,-0.772056 0.20452,-0.3049365 0.7207,-1.3359375 0.64039,-1.279109 1.95549,-0.6821068 1.31641,0.5976562 -0.0212,0.042472 -0.0435,0.084333 -0.0645,0.1269531 0.17445,-0.1888205 0.34145,-0.371328 0.57227,-0.6230468 0.15984,-0.192379 0.30717,-0.395917 0.47851,-0.578125 0.081,-0.0861 0.0456,0.097379 0.0566,0.068359 0.24181,-0.6360112 0.1184,-0.769087 0.80274,-0.984375 0.14767,-0.03814 0.29386,-0.08506 0.44336,-0.1152344 0.2476,-0.04998 0.6165,0.037064 0.87109,0 0.39639,0.0083 0.78993,0.00767 1.18555,-0.025391 0.37389,0.0054 0.36661,-0.018955 0.77734,0.1132812 0.0238,0.00767 0.0661,0.025067 0.10157,0.041016 0.0504,0.012463 0.037,0.00561 0.0781,0.015625 0.10044,-0.043431 0.21481,-0.072776 0.35742,-0.070312 0.13469,0.00233 0.28676,0.027449 0.45703,0.082031 0.12682,0.040652 0.25694,0.070348 0.38477,0.1074218 0.32669,-0.034491 0.65197,-0.062869 0.96875,0.083984 0.0939,0.065738 0.19716,0.1212184 0.28516,0.1933594 0.36058,-0.014397 -0.0307,-0.061625 0.74218,0.046875 0.29624,0.1371972 0.53005,0.2645089 0.74024,0.4648438 0.003,0.00168 0.0167,0.00433 0.0195,0.00586 0.15692,0.08568 0.29702,0.1989711 0.44531,0.2988281 0.24537,0.31897 0.68156,0.3709704 0.98242,0.6132813 V 3.6777344 Z m 11.00977,1.1152344 c -0.013,0.00247 -0.0295,0.00976 -0.0215,0.00977 0.0342,3.44e-5 0.005,-0.00168 0.0332,-0.00195 -0.004,-0.00266 -0.007,-0.00516 -0.0117,-0.00781 z m -3.25391,0.8164062 c 0.0365,0.09195 0.16827,0.051543 -0.0684,0.064453 -0.40798,0.03551 -0.81765,0.035884 -1.22656,0.027344 -0.18876,-0.0024 -0.37764,-0.00101 -0.5664,0 -0.0467,2.57e-4 -0.0939,-2.14e-4 -0.14063,0 -0.007,3.08e-5 -0.006,7.45e-5 -0.0117,0 -0.20519,0.4317082 -0.46621,0.6908192 -0.78906,1.0839843 -0.65008,0.7112431 -0.94748,1.0837153 -1.68164,1.7070313 -0.20299,0.172344 -0.43119,0.311959 -0.64649,0.46875 -0.0192,0.013986 -0.0363,0.039152 -0.0547,0.060547 -0.0607,0.2043848 -0.0695,0.1862873 -0.48438,1.2246096 -0.15948,0.399156 -0.27552,0.814504 -0.38672,1.224609 0.002,0.01138 0.004,0.03017 0.006,0.03906 0.0413,0.205284 0.0505,0.417477 0.0508,0.630859 0.93995,0.202991 0.41396,0.07545 1.14454,0.269531 0.043,0.01143 0.095,0.0024 0.1289,0.03125 0.0182,0.01547 0.0331,0.0347 0.0508,0.05078 0.0707,-0.04116 0.17376,0.01707 0.33008,0.238281 0.0421,0.05958 0.0884,0.117727 0.12695,0.179687 0.0109,0.01761 0.0367,0.07266 0.0215,0.05859 -0.16514,-0.152441 -0.31255,-0.325337 -0.47852,-0.476562 -0.29762,0.173299 -0.021,2.111901 -0.66406,1.287109 -0.003,-9.52e-4 -0.004,-9.53e-4 -0.008,-0.002 0.0492,0.08822 0.11971,0.19599 0.14648,0.259765 0.0494,0.117585 0.0772,0.243515 0.11524,0.365235 0.0969,0.269474 0.141,0.591225 0.29101,0.839844 0.0373,0.06188 -0.043,-0.138157 -0.0703,-0.205079 0.0158,-0.0073 0.0306,-0.0294 0.0469,-0.02344 0.20432,0.07452 0.74449,0.285121 0.94336,0.470703 0.31938,0.378418 0.19148,0.26556 0.33008,0.386719 0.0396,0.06417 0.077,0.129058 0.11914,0.191406 0.003,-0.0024 -0.004,-0.01194 0.002,-0.01172 0.003,9.8e-5 0.005,0.0018 0.008,0.002 -0.005,-0.01307 -0.0122,-0.02881 -0.008,-0.02344 0.0153,0.01319 0.0332,0.02782 0.0508,0.04102 0.11975,0.0288 0.22226,0.121181 0.33594,0.175782 0.0704,0.0338 0.14353,0.06197 0.21484,0.09375 0.27083,-0.01455 0.44503,0.222871 0.64844,0.349609 0.0201,0.01254 -0.0524,-0.06972 -0.0293,-0.06445 0.0429,0.0098 0.49052,0.242191 0.50586,0.25 0.25446,0.116381 0.51902,0.202593 0.78516,0.287109 0.0726,-0.459127 0.13933,-0.860534 0.16796,-1.345703 0.0139,-0.235864 -0.0352,-0.518085 0.041,-0.751953 0.0645,-0.197905 0.18384,-0.373901 0.26758,-0.564453 -0.0279,-0.03175 -0.0417,0.05869 -0.0488,0.03906 -0.15575,-0.426477 0.17236,-1.007837 0.30664,-1.408203 0.004,-0.252388 -0.0296,-0.448869 -0.043,-0.654297 -0.19886,0.02065 -0.39811,0.02445 -0.59766,0.01953 5e-5,0.334018 -4.9e-4,0.667903 0,1.001953 0.005,0.05723 0.0532,0.154408 0,0.158203 -0.21311,0.01532 -0.42709,0.004 -0.64062,-0.0098 -0.26825,0.0226 -0.53676,0.03917 -0.80469,0.02149 -0.0557,-0.0037 3e-5,-0.112127 0,-0.167969 -0.001,-0.58726 -3e-5,-1.174458 0,-1.761719 -0.007,-0.01937 -0.0117,-0.03904 -0.0176,-0.05859 l -0.0625,-0.376954 c 0.0267,-0.104356 0.0529,-0.208299 0.0801,-0.3125 1e-4,-0.153 -1.5e-4,-0.305984 0,-0.458984 2.2e-4,-0.413345 0,-0.824937 0,-1.2382812 v -0.048828 c 4e-5,-0.1821268 0.0323,-0.3259872 0.0762,-0.4550781 -0.0494,-0.1102527 -0.0615,-0.2262423 -0.0351,-0.34375 -0.0748,-0.078425 -0.13879,-0.1572795 -0.16016,-0.2363281 -0.0211,-0.07817 0.0851,0.1468279 0.15625,0.1855468 0.005,0.00274 0.005,0.00143 0.01,0.00391 0.0508,-0.1627196 0.18367,-0.3093132 0.38867,-0.421875 -0.5593,-0.2102185 -1.29506,-0.4377406 -0.55469,-0.75 0.19016,-0.080201 0.29849,-0.1415151 0.42188,-0.1582031 0.12339,-0.016688 0.26338,0.010442 0.51367,0.109375 0.18187,0.07189 0.38705,0.4943045 0.58008,0.5390625 0.029,0.017522 0.0505,0.024565 0.0781,0.041016 0.2588,-0.026221 0.51845,-0.055946 0.74414,-0.068359 0.0786,-0.0043 0.16092,-0.024431 0.23633,-0.00195 0.18424,0.0548 0.34435,0.1781127 0.5293,0.2304688 0.10143,0.02871 -0.16837,-0.1287742 -0.26367,-0.1738282 0.15016,0.06115 0.30101,0.1224408 0.45117,0.1835938 0.0259,0.01477 0.0638,0.072052 0.0762,0.044922 0.0348,-0.07603 -0.26145,-0.054444 -0.0117,-0.083984 0.0526,-0.0062 0.10547,-0.012148 0.1582,-0.017578 0.64332,-0.02385 1.28783,5.046e-4 1.93164,0 0.26853,-0.012373 0.25752,0.077582 0.2754,0.3203124 0.34415,0.053911 0.63239,0.4302449 0.53515,1.1152344 -0.0496,0.349418 -0.0987,0.6994284 -0.14844,1.0488284 -0.036,0.252891 -0.0736,0.504618 -0.10742,0.757812 -0.0134,0.100627 -0.007,0.204765 -0.0332,0.302735 -0.0507,0.18683 -0.13857,0.33452 -0.24609,0.455078 -0.003,0.03493 -0.0168,0.06585 -0.0234,0.09961 0.0793,0.330624 0.15906,0.666234 -0.0723,0.634766 0.0881,0.289394 0.1792,0.599389 0.21875,0.84375 0.0183,0.113056 0.0818,0.248894 0.0176,0.34375 -0.0809,0.119624 -0.18077,0.225195 -0.2832,0.328125 0.006,0.0354 0.0117,0.06405 0.0195,0.121094 0.0284,0.206832 0.0282,0.407493 0.0176,0.615234 -0.0691,1.351852 -1.37153,1.332549 -1.42774,0.11914 -10e-4,-0.0026 -0.004,-0.0035 -0.006,-0.0059 -0.26102,-0.445304 -0.33625,-0.500596 -0.32031,-0.919922 0.009,-0.121738 0.008,-0.295477 0.0527,-0.421875 -0.0203,-0.01091 -0.0436,-0.01726 -0.0625,-0.0293 -0.10087,-0.06411 -0.17003,-0.211945 -0.22461,-0.373047 -0.009,0.123268 -0.0171,0.246502 -0.0547,0.371094 -0.0431,0.123853 -0.0792,0.251676 -0.12891,0.373047 -0.0233,0.05692 -0.0583,0.10731 -0.0898,0.160156 -0.013,0.0219 -0.042,0.03704 -0.043,0.0625 -0.003,0.08767 0.0275,0.174067 0.0312,0.261719 0.0166,0.380207 -4e-4,0.322672 -0.10352,0.691406 -0.0451,0.08609 -0.0896,0.171719 -0.13476,0.257813 0.002,-0.04534 0.0429,-0.161002 0.006,-0.136719 -0.0432,0.02737 -0.0269,0.0993 -0.0293,0.150391 -0.008,0.18031 0.008,0.362805 -0.004,0.542969 -0.038,0.613931 -0.12726,1.087618 -0.22265,1.701171 0.10151,0.07344 0.23021,0.03974 0.33984,0.07813 0.18616,0.06507 0.26725,0.102712 0.35742,0.119141 -0.35645,-0.219771 -0.56842,-0.437601 -0.0137,-0.578125 0.53872,-0.136448 0.24216,-0.116827 0.88867,0.01563 0.0161,0.01392 0.0325,0.02737 0.0488,0.04102 0.0963,-0.07385 0.13627,-0.120038 0.20899,-0.183594 -0.4402,0.02977 -0.75889,0.07428 -0.19336,-0.130859 0.15377,-0.05578 0.25697,-0.08429 0.31836,-0.0918 0.13783,-0.01685 0.0207,0.0953 -0.125,0.222656 0.33513,-0.02267 0.74888,-0.03371 0.98046,0.07422 0.0378,-0.04094 0.0756,-0.08183 0.11329,-0.123047 0.58589,-0.701657 1.16381,-1.405431 1.85937,-2.003907 0.22926,-0.197252 0.48069,-0.365703 0.7168,-0.554687 0.39365,-0.315077 0.29544,-0.234016 0.29101,-0.234375 v -3.011719 c -0.0658,-0.112106 -0.13015,-0.228687 -0.13867,-0.255859 -0.0407,-0.12985 -0.0403,-0.267806 -0.0606,-0.402344 -0.004,0.01734 -0.003,0.06621 -0.0117,0.05078 -0.0275,-0.04721 -0.0253,-0.106907 -0.0488,-0.15625 -0.005,-0.01043 -0.007,0.04369 -0.0117,0.0332 -0.0571,-0.12423 -0.0915,-0.258505 -0.14844,-0.382812 -0.005,-0.01059 -0.007,0.02203 -0.01,0.0332 -0.0485,-0.116906 -0.098,-0.2327044 -0.14649,-0.3496092 0.0105,0.03557 0.0607,0.1281437 0.0312,0.1054687 -0.0635,-0.04908 -0.20584,-0.3778594 -0.22461,-0.4121094 -0.12841,-0.234381 -0.0401,-0.035647 -0.1875,-0.2382812 -0.0585,-0.08047 -0.10837,-0.166253 -0.16211,-0.25 -0.0282,-0.043502 -0.0791,-0.1223805 -0.12304,-0.1992188 -0.004,-0.00601 -0.008,-0.011142 -0.0117,-0.017578 -9.3e-4,-0.00168 -6.4e-4,-0.00223 -0.002,-0.00391 -0.0271,-0.046424 -0.0556,-0.1013543 -0.0781,-0.1289063 -0.13232,-0.161965 -0.0695,-0.090918 -0.22461,-0.3964844 -0.0689,-0.307819 -0.043,-0.3084391 -0.14844,-0.5332031 -0.004,-0.0078 -0.009,0.014184 -0.0137,0.021484 -0.037,-0.07217 -0.0847,-0.1402099 -0.11133,-0.2167969 -0.0392,-0.112496 -0.0575,-0.231975 -0.0859,-0.3476563 0.001,-0.073309 0.004,-0.1454425 0.006,-0.21875 -0.003,0.021049 -0.001,0.048173 -0.0117,0.056641 -0.0279,0.02287 -0.0431,-0.05841 -0.0664,-0.085937 -0.0373,-0.04414 -0.0813,-0.082085 -0.11524,-0.1289063 -0.0592,-0.08193 -0.1113,-0.1696035 -0.16406,-0.2558593 -0.0266,-0.04342 0.0575,0.084716 0.0859,0.1269531 -0.0431,-0.070754 -0.0857,-0.1420017 -0.12891,-0.2128907 -0.0748,-0.023791 -0.16775,-0.058815 -0.1875,-0.064453 -0.60278,-0.172166 -1.21184,-0.3187215 -1.81445,-0.4902343 -0.10872,0.00933 -0.21782,0.021638 -0.32617,0.015625 -0.34114,-0.01894 -0.59688,-0.086367 -0.91992,-0.1582032 -0.38865,-0.07811 -0.0652,0.026894 -0.65821,-0.2089844 -0.0148,-0.0059 -0.0489,-0.034351 -0.043,-0.019531 z m 3.31446,6.361328 c -0.005,-0.02239 -0.009,-0.04252 -0.0137,-0.06445 -0.0675,0.06526 -0.15106,0.10867 -0.24219,0.140625 0.0194,0.04904 0.0421,0.08969 0.0586,0.144531 0.007,0.02451 0.0191,0.06486 0.0274,0.0918 0.0451,-0.05904 0.10329,-0.108524 0.13671,-0.173828 0.0219,-0.04275 0.024,-0.09164 0.0332,-0.138672 z m -5.44336,-6.2753905 c -0.002,7.34e-5 0.007,0.00538 0.006,0.00586 0.001,-0.00169 4.6e-4,-0.00415 0.002,-0.00586 -10e-4,-2.09e-5 -0.007,-2.86e-5 -0.008,0 z m -4.36914,2.6582031 c -0.0875,-0.013059 -0.0684,0.05058 -0.0215,0.1347656 0.0152,-0.041748 0.0321,-0.083095 0.0469,-0.125 -0.009,-0.00175 -0.0161,-0.00839 -0.0254,-0.00977 z m 7.77734,0.9550782 c -0.0471,0.00484 -0.095,0.00815 -0.14258,0.013672 0.006,0.082019 0.01,0.1648046 0.0195,0.2460938 -0.1045,0.02325 -0.20744,0.067092 -0.31445,0.070312 -0.11263,0.00342 -0.20541,-0.024845 -0.29883,-0.056641 -0.3352,0.019639 -0.62136,-0.017152 -0.89453,-0.083984 -0.0389,0.5237541 -0.0724,1.0618431 -0.28515,1.5410151 0.13083,1.6e-4 0.26191,0.01194 0.39257,-0.0078 0.21273,-0.01456 0.40938,-0.0413 0.62305,-0.0039 0.12275,0.02145 0.24117,0.06408 0.35938,0.103515 0.0175,0.0058 0.0391,0.01377 0.0449,0.03125 0.004,0.01338 -0.0374,0.03539 -0.0234,0.03711 0.0245,0.003 0.0495,-0.0019 0.0742,-0.002 0.0897,-0.393313 0.38387,-0.600216 0.69336,-0.546875 0.17337,0.02988 0.34592,0.151533 0.49219,0.353515 0.0436,-0.03159 0.0945,-0.05647 0.16406,-0.07617 8.3e-4,-0.0058 7.5e-4,-0.01174 0.002,-0.01758 0.0337,-0.253203 0.0731,-0.506912 0.10938,-0.759765 0.0301,-0.2096924 0.0601,-0.4192679 0.0898,-0.6289066 -0.0419,-0.062581 -0.11299,-0.1472965 -0.13477,-0.2089844 -0.32386,-0.00326 -0.64695,-0.0086 -0.9707,-0.00391 z m -9.03516,0.1875 v 9.7871092 h 8.66602 c -0.14124,-0.02153 -0.28136,-0.05602 -0.42578,-0.117187 -0.0181,-0.0076 0.0775,0.0015 0.0586,-0.0039 -0.0837,-0.02363 -0.17063,-0.03558 -0.25586,-0.05273 -0.0765,-0.02224 -0.15201,-0.04417 -0.22851,-0.06641 -0.76209,-0.232675 -0.0167,0.01417 -0.60742,-0.228516 -0.59219,-0.243305 -1.22844,-0.368667 -1.80469,-0.654297 -0.13585,-0.06952 -0.27515,-0.131983 -0.41016,-0.203125 -0.13714,-0.07226 -0.27646,-0.140973 -0.4082,-0.222656 -0.0307,-0.01903 0.0679,0.02737 0.10351,0.0332 0.009,0.0015 -0.0131,-0.01283 -0.0195,-0.01953 -0.11047,-0.03033 -0.22157,-0.06147 -0.33203,-0.0918 -0.51721,-0.237493 -0.11807,-0.03894 -0.44336,-0.228516 -0.3283,-0.191324 -0.65175,-0.313013 -0.82617,-0.675781 -0.0347,-0.0473 -0.14,-0.09469 -0.10351,-0.140625 0.002,-0.0028 0.005,0.0055 0.008,0.0039 -0.002,-9.92e-4 -0.002,-0.003 -0.004,-0.0039 -0.0901,-0.05131 -0.20723,-0.0645 -0.27539,-0.142578 -0.0305,-0.03494 0.0925,-0.0095 0.13867,-0.01367 l -0.42187,-0.05664 c -0.16311,-0.08075 -0.3471,-0.129771 -0.49024,-0.242188 -0.40388,-0.317191 -0.49489,-0.937657 -0.64648,-1.392578 0.0242,-0.258055 -0.67137,-1.021408 -0.78516,-1.275391 -0.0899,-0.200682 -0.13036,-0.420769 -0.19531,-0.630859 0.005,-0.192369 0.0141,-0.383747 0.0156,-0.576172 7.4e-4,-0.09437 -5.8e-4,-0.188833 -0.002,-0.283203 -4.5e-4,-0.04712 -0.0127,-0.09662 -0.002,-0.142578 0.003,-0.01272 0.0293,0.04023 0.0273,0.02734 -0.0254,-0.164317 -0.0664,-0.32535 -0.0996,-0.488281 0.11838,-0.643728 0.34968,-1.250412 0.59375,-1.8535154 -0.34542,0.097893 -0.62119,0.060074 -0.82422,-0.044922 z m 9.91407,1.6621092 c -0.006,0.04185 -0.009,0.05148 -0.01,0.0625 5.9e-4,0.0013 8.8e-4,0.0026 0.002,0.0039 0.002,-0.02216 0.005,-0.04423 0.008,-0.06641 z m -0.54492,2.507813 c 0.0441,0.05725 0.0962,0.129415 0.13867,0.148437 0.005,-0.03176 0.007,-0.06296 0.0156,-0.0957 -0.0583,-0.01942 -0.0922,-0.025 -0.15429,-0.05273 z m 0.1289,0.30664 c -0.17427,0.01537 -0.15172,0.07265 0.002,0.160156 -0.005,-0.05224 -0.002,-0.107532 -0.002,-0.160156 z m 1.24805,0.337891 c -0.0362,0.03099 -0.0723,0.06194 -0.10938,0.0918 0.0233,-0.0062 0.0476,-0.01006 0.0703,-0.01758 0.0221,-0.04375 0.0212,-0.03813 0.0391,-0.07422 z m 3.27148,3.722656 c -0.0146,0.01283 -0.052,0.04925 -0.0586,0.05469 -0.2691,0.223174 0.0898,-0.222117 -0.24609,0.251953 -0.0726,0.100515 -0.14206,0.201861 -0.2168,0.300781 -0.29569,0.39136 -0.69631,0.393146 -1.10352,0.355469 -0.19561,-0.02922 -0.52276,-0.119848 -0.71484,-0.08398 -0.23499,0.04382 -0.42715,0.242655 -0.6582,0.28125 -0.15612,0.02933 -0.31082,0.07075 -0.46875,0.08789 -0.0998,0.01083 -0.20036,-0.0028 -0.30079,-0.0039 -0.0637,-7.05e-4 -0.12754,0.0062 -0.1914,0.0059 h 3.95898 z" />
  </g>
</svg>
