<?xml version="1.0" encoding="UTF-8" standalone="no"?>
<!-- Created with Inkscape (http://www.inkscape.org/) -->

<svg
   xmlns:dc="http://purl.org/dc/elements/1.1/"
   xmlns:cc="http://creativecommons.org/ns#"
   xmlns:rdf="http://www.w3.org/1999/02/22-rdf-syntax-ns#"
   xmlns:svg="http://www.w3.org/2000/svg"
   xmlns="http://www.w3.org/2000/svg"
   xmlns:sodipodi="http://sodipodi.sourceforge.net/DTD/sodipodi-0.dtd"
   xmlns:inkscape="http://www.inkscape.org/namespaces/inkscape"
   version="1.1"
   id="svg3713"
   width="255.03999"
   height="32"
   viewBox="0 0 255.03999 32"
   sodipodi:docname="Strise_Logo_Registered_RGB.svg"
   inkscape:version="0.92.3 (2405546, 2018-03-11)">
  <metadata
     id="metadata3719">
    <rdf:RDF>
      <cc:Work
         rdf:about="">
        <dc:format>image/svg+xml</dc:format>
        <dc:type
           rdf:resource="http://purl.org/dc/dcmitype/StillImage" />
        <dc:title></dc:title>
      </cc:Work>
    </rdf:RDF>
  </metadata>
  <defs
     id="defs3717" />
  <sodipodi:namedview
     pagecolor="#ffffff"
     bordercolor="#666666"
     borderopacity="1"
     objecttolerance="10"
     gridtolerance="10"
     guidetolerance="10"
     inkscape:pageopacity="0"
     inkscape:pageshadow="2"
     inkscape:window-width="1920"
     inkscape:window-height="1017"
     id="namedview3715"
     showgrid="false"
     inkscape:zoom="6.9204832"
     inkscape:cx="127.2963"
     inkscape:cy="16"
     inkscape:window-x="-8"
     inkscape:window-y="-8"
     inkscape:window-maximized="1"
     inkscape:current-layer="svg3713" />
  <g
     id="g3741"
     transform="translate(0.43349592,51.007999)">
    <path
       style="fill:#333333;fill-opacity:1;stroke-width:0.31999999"
       d="m 133.5697,-19.89848 c -3.03387,-0.84985 -5.31576,-3.195458 -5.98187,-6.14888 l -0.24587,-1.090181 2.6063,0.0033 2.6063,0.0033 0.53888,1.282935 c 1.67041,3.976832 9.481,2.97955 8.46201,-1.080458 -0.30857,-1.229411 -1.31365,-1.738422 -5.45493,-2.762566 -2.04164,-0.504901 -4.18116,-1.207909 -4.75448,-1.56224 -4.06462,-2.512074 -4.57204,-7.452607 -1.08029,-10.518401 3.25757,-2.860183 10.7946,-2.59732 14.08916,0.491377 1.0959,1.027424 2.10284,3.078292 2.11262,4.302844 l 0.007,0.880001 h -2.49572 -2.49571 l -0.4015,-1.110312 c -0.48725,-1.347477 -1.65897,-2.322888 -3.11954,-2.596891 -3.73951,-0.701538 -6.46398,2.357472 -3.96926,4.456645 1.07907,0.907975 1.03177,0.89072 4.92727,1.797681 3.55577,0.827864 5.78993,2.018015 6.87996,3.664999 0.70375,1.063316 0.8345,1.618979 0.8345,3.54641 0,3.017341 -0.91322,4.500102 -3.57302,5.801423 -1.56947,0.76787 -2.30215,0.915627 -4.89632,0.987423 -1.8495,0.05119 -3.65893,-0.08596 -4.59552,-0.348317 z m 65.13044,-0.165214 c -2.97521,-1.027653 -5.1179,-3.329166 -5.61749,-6.033847 l -0.19209,-1.04 h 2.52564 2.52564 l 0.58636,1.179349 c 0.79182,1.59261 1.87809,2.315345 3.82684,2.546146 3.17875,0.376476 5.20231,-0.997763 4.78044,-3.246505 -0.27835,-1.483698 -1.15232,-2.010865 -4.57617,-2.760264 -6.90876,-1.512161 -9.34298,-3.718231 -8.97668,-8.135326 0.30771,-3.710589 3.18603,-5.903401 8.08652,-6.160611 5.63254,-0.295633 9.44024,2.092778 10.2543,6.432095 l 0.22233,1.185116 -2.51561,-0.0033 -2.51562,-0.0033 -0.52262,-1.244881 c -0.72905,-1.736562 -1.91442,-2.428609 -4.15984,-2.428609 -2.37235,0 -3.59297,0.819674 -3.7367,2.509304 -0.1562,1.836153 0.89038,2.564942 5.10148,3.552402 1.93307,0.453284 4.05998,1.102351 4.72647,1.442371 2.3414,1.194494 3.87647,3.680831 3.8624,6.255923 -0.0137,2.513093 -2.35119,5.224572 -5.24927,6.089191 -2.1994,0.656177 -6.33693,0.589799 -8.43633,-0.135344 z m 23.40736,-0.03245 c -4.96658,-1.626986 -7.77974,-6.449872 -7.39155,-12.672085 0.38032,-6.095988 4.13353,-10.303506 9.71101,-10.886468 2.32509,-0.24302 5.32678,0.456949 7.15892,1.6694 2.60411,1.72332 4.16867,5.215931 4.16867,9.305837 v 2.34192 h -8.18542 -8.18543 l 0.2262,1.04 c 0.52111,2.395987 2.07181,4.488238 3.88938,5.247666 2.50475,1.046552 5.59987,0.216028 6.75399,-1.812322 0.52708,-0.926337 0.60636,-0.951351 3.02128,-0.953321 1.364,-0.0011 2.48,0.05239 2.48,0.118897 0,0.445635 -1.06435,2.495657 -1.874,3.609449 -2.17752,2.995515 -7.57409,4.366552 -11.77305,2.991027 z m 8.84705,-14.513645 c 0,-1.64477 -1.37437,-3.741585 -3.01003,-4.592248 -1.37549,-0.715358 -4.56235,-0.443575 -5.89082,0.502384 -1.10478,0.786668 -2.29915,2.796743 -2.29915,3.869364 0,0.632131 0.17688,0.652749 5.6,0.652749 4.4895,0 5.6,-0.08572 5.6,-0.432249 z m -75.51999,13.95175 c -0.72892,-0.364134 -1.37141,-1.058066 -1.84,-1.987307 -0.68648,-1.361321 -0.72,-1.782258 -0.72,-9.04 v -7.612195 h -2.24 -2.24 v -1.92 -1.920001 h 2.24 2.24 v -4 -4 h 2.56 2.56 v 4 4 h 2.72 2.72 v 1.907059 1.907058 l -2.64,0.09294 -2.64,0.09294 -0.0865,6.847617 c -0.1066,8.439019 -0.30789,8.032383 3.9761,8.032383 h 2.99041 v 2.08 2.08 l -4.24,-5.12e-4 c -3.39556,-3.84e-4 -4.46306,-0.111928 -5.36,-0.56 z m 12.48,-10.959502 v -11.520001 h 2.58914 2.58914 l -0.10577,2.056706 c -0.1187,2.308088 0.17475,2.974711 0.69889,1.587675 0.88489,-2.341681 3.50734,-3.946042 6.4686,-3.957353 l 1.84,-0.007 v 2.400001 2.4 h -2.21917 c -3.42635,0 -4.97723,0.849241 -6.13602,3.36 -0.51619,1.11844 -0.59165,2.15848 -0.59779,8.24 l -0.007,6.96 h -2.56 -2.56 z m 16.64,0 v -11.520001 h 2.56 2.56 v 11.520001 11.52 h -2.56 -2.56 z m -184.95999211,-0.64 v -2.24 H 53.994566 108.39456 v 2.24 2.24 H 53.994566 -0.40543211 Z M 247.10893,-32.766544 c -0.17291,-0.04322 -0.8673,-0.171329 -1.5431,-0.284681 -1.60843,-0.269782 -3.8445,-2.323487 -4.55476,-4.183283 -1.28284,-3.35905 0.10809,-6.892589 3.36284,-8.543034 2.63068,-1.333981 5.27507,-1.064078 7.4939,0.764871 4.4102,3.635256 2.56669,11.01488 -3.012,12.057091 -0.78788,0.147192 -1.57398,0.232258 -1.74688,0.189036 z m 4.22214,-1.60645 c 2.01694,-1.624431 2.70625,-3.116988 2.58798,-5.603668 -0.12916,-2.715365 -1.19046,-4.377714 -3.5435,-5.550285 -1.93047,-0.961991 -3.71248,-1.029813 -5.501,-0.209366 -5.2337,2.400851 -5.41564,9.226179 -0.32,12.004346 0.69317,0.377919 1.59831,0.498515 3.25652,0.433878 2.01664,-0.07861 2.44562,-0.209605 3.52,-1.074905 z m -6.23732,-5.164547 -0.0592,-3.600001 h 1.78104 c 2.34294,0 3.01896,0.382301 3.01896,1.707259 0,0.574608 -0.18,1.235542 -0.4,1.468742 -0.32,0.3392 -0.32,0.453333 0,0.570666 0.25901,0.09497 0.38228,0.729435 0.34973,1.8 l -0.0503,1.653334 -0.18973,-1.6 -0.18973,-1.6 -1.98276,-0.09482 -1.98276,-0.09482 -0.11804,1.694823 c -0.0649,0.932152 -0.14469,0.07482 -0.17724,-1.905178 z m 3.80184,-0.411259 c 0.70151,-0.375437 0.84343,-1.876272 0.23496,-2.484742 -0.2112,-0.2112 -1.1472,-0.384 -2.08,-0.384 h -1.696 v 1.600001 1.6 h 1.46104 c 0.80357,0 1.73957,-0.149067 2.08,-0.331259 z m -64.34103,-8.308742 v -2.88 h 2.56 2.56 v 2.88 2.88 h -2.56 -2.56 z"
       id="path3743"
       inkscape:connector-curvature="0" />
  </g>
</svg>
