<svg xmlns="http://www.w3.org/2000/svg" width="229.124" height="57.528" viewBox="0 0 229.124 57.528"><g transform="translate(-229.471)"><path d="M347.271,42.805h9.991c.449,4.306,3.923,6.889,8.574,6.889h.689c3.877,0,6.634-1.894,6.5-4.82-.111-2.5-1.642-4.049-5.3-4.823l-5.914-1.291c-8.265-1.895-13.254-5.6-13.571-12.743-.36-8.094,6.471-13.26,16.291-13.26,11.283,0,17.654,5.769,18.051,14.723h-9.9c-.611-4.046-3.148-6.888-7.628-6.888h-.688c-3.789,0-6.369,2.068-6.246,4.822.109,2.412,1.986,3.96,5.9,4.82l6.265,1.466c7.657,1.723,12.3,5.508,12.626,12.742.334,7.492-5.877,13.086-16.814,13.086-11.54,0-18.257-5.769-18.828-14.723" fill="#2d2a2b"/><path d="M229.471,42.805h9.991c.448,4.306,3.923,6.889,8.574,6.889h.688c3.877,0,6.635-1.894,6.5-4.82-.111-2.5-1.643-4.049-5.3-4.823l-5.914-1.291c-8.266-1.895-13.254-5.6-13.571-12.743-.36-8.094,6.471-13.26,16.291-13.26,11.283,0,17.654,5.769,18.051,14.723h-9.9c-.611-4.046-3.148-6.888-7.628-6.888h-.689c-3.788,0-6.368,2.068-6.245,4.822.108,2.412,1.985,3.96,5.9,4.82l6.265,1.466c7.657,1.723,12.3,5.508,12.626,12.742.334,7.492-5.877,13.086-16.814,13.086-11.54,0-18.257-5.769-18.828-14.723" fill="#2d2a2b"/><path d="M275.347,46.146V21.922h-8.091v-8.1h8.091V0h9.809V13.818h9.809v8.1h-9.809V43.843c0,3.326.853,4.18,4.179,4.18h8.337v8.444h-12C279.014,56.467,275.347,52.8,275.347,46.146Z" fill="#2d2a2b"/><path d="M302.344,13.818h9.639v8.871a12.343,12.343,0,0,1,12.368-9.3H328.2V22.6h-4.619c-7.421,0-11.43,4.179-11.43,11.941V56.467h-9.809Z" fill="#2d2a2b"/><path d="M332.319,0h9.809V10.577h-9.809Zm0,13.818h9.809V56.467h-9.809Z" fill="#2d2a2b"/><path d="M386.3,35.143c0-13.648,8.445-22.178,20.045-22.178,12.113,0,18.937,8.615,18.937,20.386,0,1.45-.086,2.9-.171,4.351H395.856c.512,7.506,5.8,11.6,10.662,11.6h.682c4.18,0,7.336-2.388,8.189-5.971h9.724c-1.791,8.53-8.786,13.989-18.6,13.989C395.856,57.32,386.3,49.558,386.3,35.143Zm29.343-5.033c-.341-6.141-4.436-9.127-9.127-9.127h-.683c-4.606,0-8.956,2.9-9.724,9.127Z" fill="#2d2a2b"/><path d="M445.718,9.017a11.6,11.6,0,1,1-11.6,11.6,11.61,11.61,0,0,1,11.6-11.6m0-1.28A12.878,12.878,0,1,0,458.6,20.614,12.878,12.878,0,0,0,445.718,7.737Z" fill="#2d2a2b"/><path d="M441.026,13.883h5.5c2.365,0,4.116,1.519,4.116,3.6A3.326,3.326,0,0,1,448.6,20.71c1.346,0,1.846.5,1.846,1.827v4.809H449.1V22.537a.765.765,0,0,0-.866-.865h-5.866v5.674h-1.346Zm5.308,6.539a2.81,2.81,0,0,0,2.962-2.751c0-1.6-1.115-2.538-2.962-2.538h-3.962v5.289Z" fill="#2d2a2b"/></g></svg>