<svg id="Layer_1" data-name="Layer 1" xmlns="http://www.w3.org/2000/svg" viewBox="0 0 283.46 77.34"><defs><style>.cls-1{fill:#212e7c;}.cls-2{fill:#00e0b5;}</style></defs><title>Ways-logo</title><path class="cls-1" d="M56.67,1.17c2,0,2.88.75,3.31,2.35l9.72,36L74.51,59h0.32l4.49-19.23L88.82,3.52a2.84,2.84,0,0,1,3.1-2.35h10.15c1.71,0,2.46,1.07,1.92,3L84.44,73.81A3,3,0,0,1,81,76.38H69.81a3,3,0,0,1-3.31-2.56l-10-34.29L52.29,22.86H52L47.69,39.52,37.76,73.81a3.07,3.07,0,0,1-3.31,2.56H23.23a3.11,3.11,0,0,1-3.42-2.56L0.16,4.17c-0.53-1.92.32-3,2-3H12.34a2.84,2.84,0,0,1,3.1,2.35l9.51,36.21,4.49,19.12h0.21l4.81-19.33,9.83-36c0.43-1.6,1.28-2.35,3.31-2.35h9.08Z"/><path class="cls-1" d="M201.67,73.71c0,1.92-.85,2.67-2.56,2.67h-9.72c-1.82,0-2.67-.75-2.67-2.67v-25l-25-44.44a2,2,0,0,1,1.82-3.1h10.25a3.51,3.51,0,0,1,3.52,2.35l11.86,22.65,5,10.47h0.11l4.91-10.47,12-22.65c0.75-1.39,1.5-2.35,3.52-2.35H225a2,2,0,0,1,1.82,3.1l-25.1,44.44v25Z"/><path class="cls-1" d="M254.84,77.34c-9.83,0-18.48-1.82-23.18-4.17-1.5-.75-2.24-1.5-1.6-3.2l2.56-6.84c0.53-1.6,1.39-2.35,3.2-1.6a45.18,45.18,0,0,0,17,3.2c9.29,0,15.7-2.78,15.7-9s-6.73-8.65-15.06-11.86c-11.43-4.27-22.22-8.65-22.22-23.39C231.23,6.94,240.52,0,258.36,0c9.19,0,16.24,1.82,20.4,3.74,1.5,0.75,2.24,1.5,1.6,3.2l-2.46,6.62c-0.64,1.6-1.5,2.14-3.42,1.5a41.36,41.36,0,0,0-14.74-2.35c-9.08,0-13.57,2.46-13.57,8.12,0,6.09,6.09,8.12,14.31,11.43,11.86,4.81,23,8.87,23,23.71S271.29,77.34,254.84,77.34Z"/><path class="cls-2" d="M128,38.16l7.47-22.24h0.32l7.31,22.24h14.09L144.82,3.63c-0.53-1.6-1.18-2.46-3.2-2.46H129.44c-2,0-2.67.85-3.2,2.46L113.91,38.16h14Z"/><path class="cls-1" d="M109.43,50.71l-8.09,22.68c-0.64,1.71.21,3,2,3h9.26c1.71,0,2.46-.75,3-2.35l4.91-14,3.18-9.33H109.43Z"/><path class="cls-1" d="M169.71,73.39l-8.09-22.68H147.14l3,9.33L155,74c0.53,1.6,1.28,2.35,3.1,2.35h9.66C169.49,76.38,170.35,75.09,169.71,73.39Z"/></svg>